<svg width="40" height="40" viewBox="0 0 40 40" fill="none" xmlns="http://www.w3.org/2000/svg">
<path d="M3.75 15C3.75 6.25 12.5 6.25 20 6.25C27.5 6.25 36.25 6.25 36.25 15C36.25 25 27.5 13.75 27.5 13.75H12.5C12.5 13.75 3.75 25 3.75 15ZM13.75 17.5C13.75 17.5 7.5 23.75 7.5 35H32.5C32.5 23.75 26.25 17.5 26.25 17.5H13.75Z" fill="white" stroke="#6F236B" stroke-width="4.375" stroke-linecap="round" stroke-linejoin="round"/>
<path d="M20 31.25C22.7614 31.25 25 29.0114 25 26.25C25 23.4886 22.7614 21.25 20 21.25C17.2386 21.25 15 23.4886 15 26.25C15 29.0114 17.2386 31.25 20 31.25Z" fill="white" stroke="#6F236B" stroke-width="4.375" stroke-linecap="round" stroke-linejoin="round"/>
</svg>
