<svg width="60" height="60" viewBox="0 0 60 60" fill="none" xmlns="http://www.w3.org/2000/svg">
<rect width="60" height="60" rx="30" fill="white"/>
<path d="M24.1235 37.9613C21.931 37.9114 19.9726 36.2719 19.0781 33.8194C19.825 33.8801 20.5766 33.7882 21.3008 33.5459L22.9338 32.9994L21.2621 32.5863C18.9198 32.0075 17.0169 29.5654 16.7398 26.4357C17.4472 26.7754 18.2027 26.9675 18.974 26.9972L20.4574 27.0543L19.3109 26.1114C17.7881 24.859 16.7552 22.6898 16.7552 20.1938C16.7552 19.2113 16.9157 18.2775 17.2043 17.4302C20.2974 21.6872 24.7373 24.4892 29.7437 24.7984L30.3853 24.8381L30.2658 24.2065C30.1668 23.6832 30.1152 23.1364 30.1152 22.5733C30.1152 18.5652 32.7391 15.5 35.7702 15.5C37.3572 15.5 38.8191 16.3235 39.8653 17.6949L40.0633 17.9545L40.3806 17.8776C41.3602 17.6402 42.3103 17.2648 43.2126 16.7616C42.7185 17.8334 42.0083 18.7218 41.1681 19.3415L41.5372 20.2386C42.2788 20.1303 43.0094 19.9434 43.7209 19.681C43.0935 20.5894 42.3802 21.4011 41.5964 22.0982L41.4204 22.2548L41.4291 22.4902C41.4408 22.8086 41.4466 23.1291 41.4466 23.4516C41.4466 28.3623 39.9254 33.6451 37.0296 37.6876C34.1409 41.7203 29.9029 44.5 24.4348 44.5C21.6591 44.5 19.0362 43.6713 16.7137 42.2004C19.648 42.1336 22.3318 40.8725 24.4592 38.8211L25.3226 37.9886L24.1235 37.9613Z" fill="#F6F6F6" stroke="#801675"/>
</svg>
