<svg width="60" height="60" viewBox="0 0 60 60" fill="none" xmlns="http://www.w3.org/2000/svg">
<rect width="60" height="60" rx="30" fill="white"/>
<path fill-rule="evenodd" clip-rule="evenodd" d="M28.11 19.735C29.3405 18.5042 31.0096 17.8127 32.75 17.8125H36.125C36.3736 17.8125 36.6121 17.9113 36.7879 18.0871C36.9637 18.2629 37.0625 18.5014 37.0625 18.75V23.25C37.0625 23.4986 36.9637 23.7371 36.7879 23.9129C36.6121 24.0887 36.3736 24.1875 36.125 24.1875H32.75C32.7254 24.1875 32.701 24.1923 32.6782 24.2018C32.6555 24.2112 32.6348 24.225 32.6174 24.2424C32.6 24.2598 32.5862 24.2805 32.5768 24.3032C32.5674 24.326 32.5625 24.3504 32.5625 24.375V26.8125H36.125C36.2675 26.8124 36.4082 26.8448 36.5363 26.9073C36.6644 26.9697 36.7766 27.0606 36.8643 27.1729C36.9521 27.2852 37.013 27.4161 37.0426 27.5555C37.0722 27.6949 37.0696 27.8392 37.035 27.9775L35.91 32.4775C35.8592 32.6804 35.7421 32.8605 35.5772 32.9891C35.4123 33.1178 35.2091 33.1876 35 33.1875H32.5625V41.25C32.5625 41.4986 32.4637 41.7371 32.2879 41.9129C32.1121 42.0887 31.8736 42.1875 31.625 42.1875H27.125C26.8764 42.1875 26.6379 42.0887 26.4621 41.9129C26.2863 41.7371 26.1875 41.4986 26.1875 41.25V33.1875H23.75C23.5014 33.1875 23.2629 33.0887 23.0871 32.9129C22.9113 32.7371 22.8125 32.4986 22.8125 32.25V27.75C22.8125 27.6269 22.8367 27.505 22.8839 27.3912C22.931 27.2775 23 27.1741 23.0871 27.0871C23.1741 27 23.2775 26.931 23.3912 26.8839C23.505 26.8367 23.6269 26.8125 23.75 26.8125H26.1875V24.375C26.1877 22.6346 26.8792 20.9655 28.11 19.735ZM32.75 19.6875C31.5068 19.6875 30.3145 20.1814 29.4354 21.0604C28.5564 21.9395 28.0625 23.1318 28.0625 24.375V27.75C28.0625 27.9986 27.9637 28.2371 27.7879 28.4129C27.6121 28.5887 27.3736 28.6875 27.125 28.6875H24.6875V31.3125H27.125C27.3736 31.3125 27.6121 31.4113 27.7879 31.5871C27.9637 31.7629 28.0625 32.0014 28.0625 32.25V40.3125H30.6875V32.25C30.6875 32.0014 30.7863 31.7629 30.9621 31.5871C31.1379 31.4113 31.3764 31.3125 31.625 31.3125H34.2675L34.9237 28.6875H31.625C31.3764 28.6875 31.1379 28.5887 30.9621 28.4129C30.7863 28.2371 30.6875 27.9986 30.6875 27.75V24.375C30.6875 23.828 30.9048 23.3034 31.2916 22.9166C31.6784 22.5298 32.203 22.3125 32.75 22.3125H35.1875V19.6875H32.75Z" fill="#801675"/>
</svg>
