<svg width="40" height="40" viewBox="0 0 40 40" fill="none" xmlns="http://www.w3.org/2000/svg">
<path fill-rule="evenodd" clip-rule="evenodd" d="M34 7H6C5.46957 7 4.96086 7.21071 4.58579 7.58579C4.21071 7.96086 4 8.46957 4 9V31C4 31.5304 4.21071 32.0391 4.58579 32.4142C4.96086 32.7893 5.46957 33 6 33H34C34.5304 33 35.0391 32.7893 35.4142 32.4142C35.7893 32.0391 36 31.5304 36 31V9C36 8.46957 35.7893 7.96086 35.4142 7.58579C35.0391 7.21071 34.5304 7 34 7ZM8 29V11H32V29H8Z" fill="#6F236B"/>
<path fill-rule="evenodd" clip-rule="evenodd" d="M35.2961 10.522L21.2061 22.522C20.8427 22.8313 20.3808 23.0005 19.9036 22.999C19.4264 22.9975 18.9655 22.8255 18.6041 22.514L4.69408 10.514C3.29008 9.304 4.14608 7 6.00008 7H34.0001C35.8601 7 36.7121 9.316 35.2961 10.522ZM11.3801 11L19.9201 18.366L28.5641 11H11.3801Z" fill="#6F236B"/>
</svg>
