<svg width="40" height="40" viewBox="0 0 40 40" fill="none" xmlns="http://www.w3.org/2000/svg">
<path d="M12.9984 27.25C13.1298 27.3487 13.2794 27.4206 13.4385 27.4615C13.5977 27.5023 13.7634 27.5114 13.9261 27.4882C14.0887 27.465 14.2453 27.4099 14.3866 27.3261C14.528 27.2424 14.6515 27.1315 14.75 27C15.5068 25.9909 16.4882 25.1719 17.6164 24.6078C18.7446 24.0437 19.9886 23.75 21.25 23.75C22.5114 23.75 23.7554 24.0437 24.8836 24.6078C26.0118 25.1719 26.9932 25.9909 27.75 27C27.8485 27.1313 27.9719 27.242 28.1131 27.3256C28.2544 27.4092 28.4107 27.4642 28.5732 27.4874C28.7357 27.5107 28.9012 27.5016 29.0602 27.4609C29.2192 27.4202 29.3687 27.3485 29.5 27.25C29.6313 27.1515 29.742 27.0281 29.8256 26.8869C29.9092 26.7456 29.9642 26.5893 29.9874 26.4268C30.0107 26.2643 30.0016 26.0988 29.9609 25.9398C29.9202 25.7808 29.8485 25.6313 29.75 25.5C28.6431 24.016 27.1672 22.8476 25.4688 22.1109C26.3995 21.2612 27.0516 20.1498 27.3395 18.9228C27.6273 17.6958 27.5375 16.4104 27.0818 15.2353C26.6261 14.0603 25.8257 13.0505 24.7858 12.3384C23.7459 11.6263 22.515 11.2453 21.2547 11.2453C19.9944 11.2453 18.7635 11.6263 17.7236 12.3384C16.6836 13.0505 15.8833 14.0603 15.4276 15.2353C14.9719 16.4104 14.882 17.6958 15.1699 18.9228C15.4578 20.1498 16.1099 21.2612 17.0406 22.1109C15.3388 22.8462 13.8594 24.0147 12.75 25.5C12.5509 25.765 12.4653 26.0983 12.5118 26.4264C12.5584 26.7546 12.7335 27.0509 12.9984 27.25ZM17.5 17.5C17.5 16.7583 17.7199 16.0333 18.132 15.4166C18.544 14.7999 19.1297 14.3193 19.8149 14.0355C20.5002 13.7516 21.2542 13.6774 21.9816 13.8221C22.709 13.9667 23.3772 14.3239 23.9017 14.8483C24.4261 15.3728 24.7833 16.041 24.9279 16.7684C25.0726 17.4958 24.9984 18.2498 24.7145 18.9351C24.4307 19.6203 23.9501 20.206 23.3334 20.618C22.7167 21.0301 21.9917 21.25 21.25 21.25C20.2554 21.25 19.3016 20.8549 18.5983 20.1517C17.8951 19.4484 17.5 18.4946 17.5 17.5ZM32.5 3.75H10C9.33696 3.75 8.70107 4.01339 8.23223 4.48223C7.76339 4.95107 7.5 5.58696 7.5 6.25V10H5C4.66848 10 4.35054 10.1317 4.11612 10.3661C3.8817 10.6005 3.75 10.9185 3.75 11.25C3.75 11.5815 3.8817 11.8995 4.11612 12.1339C4.35054 12.3683 4.66848 12.5 5 12.5H7.5V18.75H5C4.66848 18.75 4.35054 18.8817 4.11612 19.1161C3.8817 19.3505 3.75 19.6685 3.75 20C3.75 20.3315 3.8817 20.6495 4.11612 20.8839C4.35054 21.1183 4.66848 21.25 5 21.25H7.5V27.5H5C4.66848 27.5 4.35054 27.6317 4.11612 27.8661C3.8817 28.1005 3.75 28.4185 3.75 28.75C3.75 29.0815 3.8817 29.3995 4.11612 29.6339C4.35054 29.8683 4.66848 30 5 30H7.5V33.75C7.5 34.413 7.76339 35.0489 8.23223 35.5178C8.70107 35.9866 9.33696 36.25 10 36.25H32.5C33.163 36.25 33.7989 35.9866 34.2678 35.5178C34.7366 35.0489 35 34.413 35 33.75V6.25C35 5.58696 34.7366 4.95107 34.2678 4.48223C33.7989 4.01339 33.163 3.75 32.5 3.75ZM32.5 33.75H10V6.25H32.5V33.75Z" fill="#6F236B"/>
</svg>
