<svg width="60" height="60" viewBox="0 0 60 60" fill="none" xmlns="http://www.w3.org/2000/svg">
<rect width="60" height="60" rx="30" fill="white"/>
<path d="M45 15.8429C45 15.622 44.8563 15.4101 44.6006 15.2538C44.3449 15.0976 43.998 15.0099 43.6364 15.0099H36.8182C33.3849 14.9054 30.0234 15.6353 27.4683 17.0402C24.9132 18.445 23.3721 20.4106 23.1818 22.5074V27.0059H16.3636C16.002 27.0059 15.6551 27.0937 15.3994 27.2499C15.1437 27.4061 15 27.618 15 27.839V32.1709C15 32.3918 15.1437 32.6037 15.3994 32.7599C15.6551 32.9162 16.002 33.0039 16.3636 33.0039H23.1818V44.1669C23.1818 44.3879 23.3255 44.5998 23.5812 44.756C23.8369 44.9122 24.1838 45 24.5455 45H32.7273C33.0889 45 33.4358 44.9122 33.6915 44.756C33.9472 44.5998 34.0909 44.3879 34.0909 44.1669V33.0039H41.2364C41.5396 33.0066 41.8357 32.9474 42.0777 32.8358C42.3197 32.7241 42.4939 32.5664 42.5727 32.3875L44.5364 28.0556C44.5906 27.9325 44.5979 27.8034 44.5577 27.6783C44.5174 27.5533 44.4308 27.4355 44.3043 27.3341C44.1778 27.2327 44.015 27.1504 43.8283 27.0935C43.6415 27.0366 43.4359 27.0066 43.2273 27.0059H34.0909V22.5074C34.1587 22.095 34.4758 21.7128 34.9801 21.4356C35.4844 21.1583 36.1397 21.0058 36.8182 21.0079H43.6364C43.998 21.0079 44.3449 20.9201 44.6006 20.7639C44.8563 20.6077 45 20.3958 45 20.1748V15.8429Z" fill="#801675"/>
</svg>
