<svg width="60" height="60" viewBox="0 0 60 60" fill="none" xmlns="http://www.w3.org/2000/svg">
<rect width="60" height="60" rx="30" fill="white"/>
<path d="M35 20H25C22.2386 20 20 22.2386 20 25V35C20 37.7614 22.2386 40 25 40H35C37.7614 40 40 37.7614 40 35V25C40 22.2386 37.7614 20 35 20Z" stroke="#801675" stroke-width="2" stroke-linecap="round" stroke-linejoin="round"/>
<path d="M34.0002 29.3701C34.1236 30.2023 33.9815 31.0523 33.594 31.7991C33.2065 32.5459 32.5933 33.1515 31.8418 33.5297C31.0903 33.908 30.2386 34.0397 29.408 33.906C28.5773 33.7723 27.81 33.3801 27.215 32.7852C26.6201 32.1903 26.2279 31.4229 26.0943 30.5923C25.9606 29.7616 26.0923 28.91 26.4705 28.1584C26.8488 27.4069 27.4544 26.7938 28.2012 26.4063C28.948 26.0188 29.7979 25.8766 30.6302 26.0001C31.4791 26.1259 32.265 26.5215 32.8719 27.1284C33.4787 27.7352 33.8743 28.5211 34.0002 29.3701Z" stroke="#801675" stroke-width="2" stroke-linecap="round" stroke-linejoin="round"/>
<path d="M35.5 24.5H35.51" stroke="#801675" stroke-width="2" stroke-linecap="round" stroke-linejoin="round"/>
</svg>
