<svg width="60" height="60" viewBox="0 0 60 60" fill="none" xmlns="http://www.w3.org/2000/svg">
<rect width="60" height="60" rx="30" fill="white"/>
<path d="M45 18.5513C43.8766 19.1637 42.685 19.5657 41.4649 19.7439C42.7358 18.8066 43.7116 17.3223 44.1711 15.5539C42.963 16.4361 41.6412 17.0576 40.2628 17.3917C39.14 15.9198 37.5405 15 35.7702 15C32.3711 15 29.6152 18.391 29.6152 22.5733C29.6152 23.167 29.6696 23.7449 29.7745 24.2994C24.6593 23.9834 20.1241 20.9684 17.0884 16.3863C16.5587 17.5049 16.2552 18.806 16.2552 20.1938C16.2552 22.8213 17.3419 25.1393 18.9933 26.4976C18.0159 26.4599 17.06 26.1351 16.2054 25.5502C16.205 25.5819 16.205 25.6136 16.205 25.6455C16.205 29.3149 18.3266 32.376 21.1421 33.0717C20.2358 33.375 19.2851 33.4194 18.3627 33.2015C19.1459 36.2104 21.4189 38.3999 24.1121 38.4612C22.0057 40.4923 19.3518 41.7032 16.4682 41.7032C15.9714 41.7032 15.4815 41.6673 15 41.5973C17.7238 43.7462 20.959 45 24.4348 45C35.7559 45 41.9466 33.4596 41.9466 23.4516C41.9466 23.1232 41.9407 22.7965 41.9288 22.4718C43.1337 21.4 44.1737 20.0724 45 18.5513Z" fill="#801675"/>
</svg>
