<svg width="40" height="40" viewBox="0 0 40 40" fill="none" xmlns="http://www.w3.org/2000/svg">
<path d="M7.84915 8.58387C9.85578 8.58387 11.4825 6.66247 11.4825 4.2923C11.4825 1.92213 9.85578 0.000732422 7.84915 0.000732422C5.84252 0.000732422 4.21582 1.92213 4.21582 4.2923C4.21582 6.66247 5.84252 8.58387 7.84915 8.58387Z" fill="#C837AB"/>
<path d="M14.7288 9.73743V9.71667H1.71169V9.73068C1.26015 9.73081 0.826967 9.94177 0.506574 10.3176C0.186181 10.6934 0.00456355 11.2036 0.0013176 11.7369H0V23.8972H0.0171301C0.0171301 24.1341 0.0566325 24.3687 0.133382 24.5875C0.210132 24.8064 0.322625 25.0053 0.46444 25.1728C0.606254 25.3403 0.774613 25.4731 0.959902 25.5638C1.14519 25.6545 1.34378 25.7011 1.54434 25.7011C1.7449 25.7011 1.94349 25.6545 2.12878 25.5638C2.31407 25.4731 2.48243 25.3403 2.62424 25.1728C2.76606 25.0053 2.87855 24.8064 2.9553 24.5875C3.03205 24.3687 3.07155 24.1341 3.07155 23.8972H3.07506V15.4085H3.07902C3.08356 15.2605 3.13647 15.1203 3.22664 15.0174C3.3168 14.9145 3.43722 14.8568 3.56261 14.8565C3.82527 14.8565 4.03611 15.1019 4.04709 15.4085H4.05104V37.6679C4.05133 38.2276 4.23986 38.7643 4.57516 39.1599C4.91045 39.5554 5.36505 39.7775 5.83893 39.7771C6.31282 39.7768 6.76719 39.5541 7.10207 39.158C7.43695 38.762 7.62492 38.2251 7.62463 37.6653V26.457H7.63781C7.63584 26.3788 7.64717 26.3009 7.67115 26.228C7.69513 26.155 7.73126 26.0885 7.7774 26.0324C7.82354 25.9762 7.87876 25.9316 7.93977 25.9011C8.00078 25.8706 8.06636 25.8549 8.1326 25.8549C8.19885 25.8549 8.26443 25.8706 8.32544 25.9011C8.38645 25.9316 8.44167 25.9762 8.48781 26.0324C8.53395 26.0885 8.57008 26.155 8.59406 26.228C8.61803 26.3009 8.62937 26.3788 8.6274 26.457H8.64014V37.6653C8.65278 38.2152 8.8466 38.7376 9.18035 39.1212C9.5141 39.5049 9.96144 39.7195 10.4272 39.7195C10.8929 39.7195 11.3402 39.5049 11.674 39.1212C12.0077 38.7376 12.2015 38.2152 12.2142 37.6653V15.4085C12.2142 15.2556 12.2656 15.109 12.3571 15.0009C12.4486 14.8928 12.5727 14.8321 12.7022 14.8321C12.8316 14.8321 12.9557 14.8928 13.0472 15.0009C13.1387 15.109 13.1901 15.2556 13.1901 15.4085V23.8977H13.2068C13.2068 24.3763 13.3678 24.8353 13.6543 25.1736C13.9408 25.512 14.3293 25.7021 14.7345 25.7021C15.1396 25.7021 15.5282 25.512 15.8147 25.1736C16.1012 24.8353 16.2621 24.3763 16.2621 23.8977H16.2652V11.7374C16.2661 10.692 15.591 9.84171 14.7288 9.73743Z" fill="#C837AB"/>
<path d="M29.7936 8.63294C31.8118 8.63294 33.448 6.70039 33.448 4.31647C33.448 1.93255 31.8118 0 29.7936 0C27.7753 0 26.1392 1.93255 26.1392 4.31647C26.1392 6.70039 27.7753 8.63294 29.7936 8.63294Z" fill="#C837AB"/>
<path d="M39.9998 22.1598L37.5621 11.4143C37.5608 11.406 37.5581 11.3977 37.5564 11.3894L37.5133 11.2L37.5072 11.2021C37.2849 10.3829 36.6428 9.78626 35.8754 9.78626C35.8693 9.78626 35.864 9.78833 35.8579 9.78833V9.75098H24.3851V9.78626C23.6178 9.78626 22.9756 10.3834 22.7534 11.2021L22.7472 11.2L22.7042 11.3889C22.7024 11.3977 22.6998 11.406 22.6985 11.4148L20.2607 22.1598L20.2836 22.1671C20.2726 22.2558 20.2607 22.3445 20.2607 22.4368C20.2607 22.9234 20.4244 23.39 20.7156 23.734C21.0069 24.0781 21.402 24.2713 21.8139 24.2713C22.1254 24.271 22.4297 24.1597 22.6869 23.952C22.9441 23.7443 23.1424 23.4499 23.2559 23.1071L23.2668 23.1108L25.055 15.2285V15.2581H25.069C25.1178 14.9987 25.3044 14.8005 25.539 14.8005C25.7735 14.8005 25.9602 14.9987 26.009 15.2581H26.0235V15.3432C26.0243 15.3562 26.0301 15.3676 26.0301 15.3805C26.0301 15.3935 26.0243 15.4049 26.0235 15.4179V15.4983L23.1606 28.1188C23.1137 28.2321 23.0858 28.3551 23.0784 28.4809L23.0723 28.5074L23.0758 28.5084C23.0753 28.523 23.0723 28.5365 23.0723 28.551C23.0723 29.0947 23.4456 29.5352 23.9059 29.5352H26.023V37.8776C26.023 38.4405 26.2123 38.9803 26.5493 39.3784C26.8863 39.7764 27.3434 40 27.8199 40C28.2965 40 28.7535 39.7764 29.0905 39.3784C29.4275 38.9803 29.6168 38.4405 29.6168 37.8776V29.5352H30.6385V37.8776C30.6385 38.4405 30.8278 38.9803 31.1648 39.3784C31.5018 39.7764 31.9588 40 32.4354 40C32.9119 40 33.369 39.7764 33.706 39.3784C34.043 38.9803 34.2323 38.4405 34.2323 37.8776V29.5352H36.356C36.4654 29.5352 36.5738 29.5098 36.675 29.4604C36.7761 29.411 36.868 29.3385 36.9454 29.2471C37.0228 29.1557 37.0843 29.0472 37.1262 28.9277C37.1681 28.8083 37.1896 28.6803 37.1896 28.551C37.1896 28.5365 37.1866 28.5224 37.1861 28.5084L37.1896 28.5074L37.1835 28.4809C37.1761 28.3551 37.1482 28.2321 37.1013 28.1188L34.2468 15.5362L34.256 15.5331C34.2441 15.4833 34.2296 15.434 34.2296 15.3795C34.2296 15.0599 34.4493 14.7995 34.7207 14.7995C34.9513 14.7995 35.1362 14.992 35.1885 15.2457L35.2074 15.24L36.9929 23.1097L37.0034 23.1061C37.1348 23.5044 37.3801 23.8358 37.6966 24.043C38.0132 24.2501 38.3811 24.32 38.7367 24.2404C39.0922 24.1608 39.413 23.9369 39.6435 23.6073C39.874 23.2777 39.9996 22.8633 39.9985 22.4358C39.9985 22.3435 39.9867 22.2547 39.9757 22.166L39.9998 22.1598Z" fill="#C837AB"/>
</svg>
