<svg width="60" height="60" viewBox="0 0 60 60" fill="none" xmlns="http://www.w3.org/2000/svg">
<rect width="60" height="60" rx="30" fill="white"/>
<rect x="14.8286" y="14.8287" width="30.3425" height="30.3425" rx="15.1713" fill="#801675"/>
<path d="M38.0461 41.1712H21.9536C21.1248 41.1712 20.33 40.842 19.7439 40.2559C19.1579 39.6699 18.8286 38.875 18.8286 38.0462V21.9537C18.8286 21.1249 19.1579 20.3301 19.7439 19.744C20.33 19.158 21.1248 18.8287 21.9536 18.8287H38.0461C38.8749 18.8287 39.6698 19.158 40.2558 19.744C40.8419 20.3301 41.1711 21.1249 41.1711 21.9537V38.0462C41.1711 38.875 40.8419 39.6699 40.2558 40.2559C39.6698 40.842 38.8749 41.1712 38.0461 41.1712ZM21.9536 20.0787C21.4563 20.0787 20.9794 20.2763 20.6278 20.6279C20.2762 20.9795 20.0786 21.4565 20.0786 21.9537V38.0462C20.0786 38.5435 20.2762 39.0204 20.6278 39.3721C20.9794 39.7237 21.4563 39.9212 21.9536 39.9212H38.0461C38.5434 39.9212 39.0203 39.7237 39.3719 39.3721C39.7236 39.0204 39.9211 38.5435 39.9211 38.0462V21.9537C39.9211 21.4565 39.7236 20.9795 39.3719 20.6279C39.0203 20.2763 38.5434 20.0787 38.0461 20.0787H21.9536Z" fill="black"/>
<path d="M29.9998 35.8081C28.851 35.8069 27.7284 35.465 26.7739 34.8259C25.8194 34.1867 25.0757 33.2789 24.6371 32.2172C24.1984 31.1555 24.0843 29.9876 24.3093 28.8611C24.5342 27.7346 25.0881 26.7001 25.901 25.8883C26.7138 25.0765 27.7491 24.524 28.8759 24.3005C30.0027 24.077 31.1704 24.1926 32.2316 24.6326C33.2927 25.0727 34.1995 25.8175 34.8374 26.7729C35.4753 27.7282 35.8157 28.8513 35.8154 30C35.8134 31.5411 35.1998 33.0184 34.1094 34.1074C33.019 35.1964 31.5409 35.8081 29.9998 35.8081ZM29.9998 25.4487C29.1014 25.4499 28.2235 25.7174 27.4771 26.2173C26.7306 26.7172 26.149 27.4271 25.8058 28.2573C25.4626 29.0876 25.3731 30.0009 25.5487 30.882C25.7243 31.763 26.157 32.5723 26.7923 33.2076C27.4275 33.8428 28.2368 34.2756 29.1179 34.4511C29.9989 34.6267 30.9123 34.5372 31.7425 34.194C32.5727 33.8508 33.2826 33.2692 33.7825 32.5228C34.2824 31.7763 34.5499 30.8984 34.5512 30C34.5512 28.7929 34.0716 27.6353 33.2181 26.7817C32.3645 25.9282 31.2069 25.4487 29.9998 25.4487Z" fill="black"/>
<path d="M36.5739 24.8228C37.3245 24.8228 37.933 24.2143 37.933 23.4637C37.933 22.7131 37.3245 22.1046 36.5739 22.1046C35.8233 22.1046 35.2148 22.7131 35.2148 23.4637C35.2148 24.2143 35.8233 24.8228 36.5739 24.8228Z" fill="black"/>
</svg>
