<svg width="497" height="84" viewBox="0 0 497 84" fill="none" xmlns="http://www.w3.org/2000/svg">
<path d="M41.4886 41.8182C39.7917 41.8182 38.2803 41.5265 36.9545 40.9432C35.6364 40.3523 34.5947 39.5417 33.8295 38.5114C33.072 37.4735 32.6818 36.2765 32.6591 34.9205H37.6136C37.6439 35.4886 37.8295 35.9886 38.1705 36.4205C38.5189 36.8447 38.9811 37.1742 39.5568 37.4091C40.1326 37.6439 40.7803 37.7614 41.5 37.7614C42.25 37.7614 42.9129 37.6288 43.4886 37.3636C44.0644 37.0985 44.5152 36.7311 44.8409 36.2614C45.1667 35.7917 45.3295 35.25 45.3295 34.6364C45.3295 34.0152 45.1553 33.4659 44.8068 32.9886C44.4659 32.5038 43.9735 32.125 43.3295 31.8523C42.6932 31.5795 41.9356 31.4432 41.0568 31.4432H38.8864V27.8295H41.0568C41.7992 27.8295 42.4545 27.7008 43.0227 27.4432C43.5985 27.1856 44.0455 26.8295 44.3636 26.375C44.6818 25.9129 44.8409 25.375 44.8409 24.7614C44.8409 24.178 44.7008 23.6667 44.4205 23.2273C44.1477 22.7803 43.7614 22.4318 43.2614 22.1818C42.7689 21.9318 42.1932 21.8068 41.5341 21.8068C40.8674 21.8068 40.2576 21.928 39.7045 22.1705C39.1515 22.4053 38.7083 22.7424 38.375 23.1818C38.0417 23.6212 37.8636 24.1364 37.8409 24.7273H33.125C33.1477 23.3864 33.5303 22.2045 34.2727 21.1818C35.0152 20.1591 36.0152 19.3598 37.2727 18.7841C38.5379 18.2008 39.9659 17.9091 41.5568 17.9091C43.1629 17.9091 44.5682 18.2008 45.7727 18.7841C46.9773 19.3674 47.9129 20.1553 48.5795 21.1477C49.2538 22.1326 49.5871 23.2386 49.5795 24.4659C49.5871 25.7689 49.1818 26.8561 48.3636 27.7273C47.553 28.5985 46.4962 29.1515 45.1932 29.3864V29.5682C46.9053 29.7879 48.2083 30.3826 49.1023 31.3523C50.0038 32.3144 50.4508 33.5189 50.4432 34.9659C50.4508 36.2917 50.0682 37.4697 49.2955 38.5C48.5303 39.5303 47.4735 40.3409 46.125 40.9318C44.7765 41.5227 43.2311 41.8182 41.4886 41.8182ZM53.9801 41.5V37.9545L62.2642 30.2841C62.9688 29.6023 63.5597 28.9886 64.0369 28.4432C64.5218 27.8977 64.8892 27.3636 65.1392 26.8409C65.3892 26.3106 65.5142 25.7386 65.5142 25.125C65.5142 24.4432 65.3589 23.8561 65.0483 23.3636C64.7377 22.8636 64.3134 22.4811 63.7756 22.2159C63.2377 21.9432 62.6278 21.8068 61.946 21.8068C61.2339 21.8068 60.6127 21.9508 60.0824 22.2386C59.5521 22.5265 59.143 22.9394 58.8551 23.4773C58.5672 24.0152 58.4233 24.6553 58.4233 25.3977H53.7528C53.7528 23.875 54.0975 22.553 54.7869 21.4318C55.4763 20.3106 56.4422 19.4432 57.6847 18.8295C58.9271 18.2159 60.3589 17.9091 61.9801 17.9091C63.6468 17.9091 65.0975 18.2045 66.3324 18.7955C67.5748 19.3788 68.5407 20.1894 69.2301 21.2273C69.9195 22.2652 70.2642 23.4545 70.2642 24.7955C70.2642 25.6742 70.09 26.5417 69.7415 27.3977C69.4006 28.2538 68.7907 29.2045 67.9119 30.25C67.0331 31.2879 65.7945 32.5341 64.196 33.9886L60.7983 37.3182V37.4773H70.571V41.5H53.9801ZM78.5682 36.4773L78.5795 30.6705H79.2841L84.875 24.0455H90.4318L82.9205 32.8182H81.7727L78.5682 36.4773ZM74.1818 41.5V18.2273H79.0227V41.5H74.1818ZM85.0909 41.5L79.9545 33.8977L83.1818 30.4773L90.7614 41.5H85.0909Z" fill="#757575"/>
<path d="M10.7727 61.5H9.36364C9.2803 61.0947 9.13447 60.7386 8.92614 60.4318C8.72159 60.125 8.47159 59.8674 8.17614 59.6591C7.88447 59.447 7.56061 59.2879 7.20455 59.1818C6.84849 59.0758 6.47727 59.0227 6.09091 59.0227C5.38636 59.0227 4.74811 59.2008 4.17614 59.5568C3.60795 59.9129 3.1553 60.4375 2.81818 61.1307C2.48485 61.8239 2.31818 62.6742 2.31818 63.6818C2.31818 64.6894 2.48485 65.5398 2.81818 66.233C3.1553 66.9261 3.60795 67.4508 4.17614 67.8068C4.74811 68.1629 5.38636 68.3409 6.09091 68.3409C6.47727 68.3409 6.84849 68.2879 7.20455 68.1818C7.56061 68.0758 7.88447 67.9186 8.17614 67.7102C8.47159 67.4981 8.72159 67.2386 8.92614 66.9318C9.13447 66.6212 9.2803 66.2652 9.36364 65.8636H10.7727C10.6667 66.4583 10.4735 66.9905 10.1932 67.4602C9.91288 67.9299 9.56439 68.3295 9.14773 68.6591C8.73106 68.9848 8.26326 69.233 7.74432 69.4034C7.22917 69.5739 6.67803 69.6591 6.09091 69.6591C5.09849 69.6591 4.21591 69.4167 3.44318 68.9318C2.67045 68.447 2.0625 67.7576 1.61932 66.8636C1.17614 65.9697 0.954545 64.9091 0.954545 63.6818C0.954545 62.4545 1.17614 61.3939 1.61932 60.5C2.0625 59.6061 2.67045 58.9167 3.44318 58.4318C4.21591 57.947 5.09849 57.7045 6.09091 57.7045C6.67803 57.7045 7.22917 57.7898 7.74432 57.9602C8.26326 58.1307 8.73106 58.3807 9.14773 58.7102C9.56439 59.036 9.91288 59.4337 10.1932 59.9034C10.4735 60.3693 10.6667 60.9015 10.7727 61.5ZM15.4361 69.7045C14.883 69.7045 14.3812 69.6004 13.9304 69.392C13.4796 69.1799 13.1217 68.875 12.8565 68.4773C12.5914 68.0758 12.4588 67.5909 12.4588 67.0227C12.4588 66.5227 12.5573 66.1174 12.7543 65.8068C12.9512 65.4924 13.2145 65.2462 13.544 65.0682C13.8736 64.8902 14.2372 64.7576 14.6349 64.6705C15.0365 64.5795 15.4399 64.5076 15.8452 64.4545C16.3755 64.3864 16.8054 64.3352 17.1349 64.3011C17.4683 64.2633 17.7107 64.2008 17.8622 64.1136C18.0175 64.0265 18.0952 63.875 18.0952 63.6591V63.6136C18.0952 63.053 17.9418 62.6174 17.6349 62.3068C17.3319 61.9962 16.8717 61.8409 16.2543 61.8409C15.6141 61.8409 15.1122 61.9811 14.7486 62.2614C14.3849 62.5417 14.1293 62.8409 13.9815 63.1591L12.7088 62.7045C12.9361 62.1742 13.2391 61.7614 13.6179 61.4659C14.0005 61.1667 14.4171 60.9583 14.8679 60.8409C15.3224 60.7197 15.7694 60.6591 16.2088 60.6591C16.4891 60.6591 16.8111 60.6932 17.1747 60.7614C17.5421 60.8258 17.8963 60.9602 18.2372 61.1648C18.5819 61.3693 18.8679 61.678 19.0952 62.0909C19.3224 62.5038 19.4361 63.0568 19.4361 63.75V69.5H18.0952V68.3182H18.027C17.9361 68.5076 17.7846 68.7102 17.5724 68.9261C17.3603 69.142 17.0781 69.3258 16.7259 69.4773C16.3736 69.6288 15.9437 69.7045 15.4361 69.7045ZM15.6406 68.5C16.1709 68.5 16.6179 68.3958 16.9815 68.1875C17.349 67.9792 17.6255 67.7102 17.8111 67.3807C18.0005 67.0511 18.0952 66.7045 18.0952 66.3409V65.1136C18.0384 65.1818 17.9134 65.2443 17.7202 65.3011C17.5308 65.3542 17.3111 65.4015 17.0611 65.4432C16.8149 65.4811 16.5743 65.5152 16.3395 65.5455C16.1084 65.572 15.9209 65.5947 15.777 65.6136C15.4285 65.6591 15.1027 65.733 14.7997 65.8352C14.5005 65.9337 14.258 66.0833 14.0724 66.2841C13.8906 66.4811 13.7997 66.75 13.7997 67.0909C13.7997 67.5568 13.9721 67.9091 14.3168 68.1477C14.6652 68.3826 15.1065 68.5 15.6406 68.5ZM28.0653 62.7273L26.8608 63.0682C26.785 62.8674 26.6733 62.6723 26.5256 62.483C26.3816 62.2898 26.1847 62.1307 25.9347 62.0057C25.6847 61.8807 25.3646 61.8182 24.9744 61.8182C24.4403 61.8182 23.9953 61.9413 23.6392 62.1875C23.2869 62.4299 23.1108 62.7386 23.1108 63.1136C23.1108 63.447 23.232 63.7102 23.4744 63.9034C23.7169 64.0966 24.0956 64.2576 24.6108 64.3864L25.9062 64.7045C26.6866 64.8939 27.268 65.1837 27.6506 65.5739C28.0331 65.9602 28.2244 66.4583 28.2244 67.0682C28.2244 67.5682 28.0805 68.0152 27.7926 68.4091C27.5085 68.803 27.1108 69.1136 26.5994 69.3409C26.0881 69.5682 25.4934 69.6818 24.8153 69.6818C23.9252 69.6818 23.1884 69.4886 22.6051 69.1023C22.0218 68.7159 21.6525 68.1515 21.4972 67.4091L22.7699 67.0909C22.8911 67.5606 23.1203 67.9129 23.4574 68.1477C23.7983 68.3826 24.2434 68.5 24.7926 68.5C25.4176 68.5 25.9138 68.3674 26.2812 68.1023C26.6525 67.8333 26.8381 67.5114 26.8381 67.1364C26.8381 66.8333 26.732 66.5795 26.5199 66.375C26.3078 66.1667 25.982 66.0114 25.5426 65.9091L24.0881 65.5682C23.2888 65.3788 22.7017 65.0852 22.3267 64.6875C21.9555 64.286 21.7699 63.7841 21.7699 63.1818C21.7699 62.6894 21.9081 62.2538 22.1847 61.875C22.465 61.4962 22.8456 61.1989 23.3267 60.983C23.8116 60.767 24.3608 60.6591 24.9744 60.6591C25.8381 60.6591 26.5161 60.8485 27.0085 61.2273C27.5047 61.6061 27.857 62.1061 28.0653 62.7273ZM33.902 69.6818C33.0611 69.6818 32.3357 69.4962 31.7259 69.125C31.1198 68.75 30.652 68.2273 30.3224 67.5568C29.9967 66.8826 29.8338 66.0985 29.8338 65.2045C29.8338 64.3106 29.9967 63.5227 30.3224 62.8409C30.652 62.1553 31.1103 61.6212 31.6974 61.2386C32.2884 60.8523 32.9777 60.6591 33.7656 60.6591C34.2202 60.6591 34.669 60.7348 35.1122 60.8864C35.5554 61.0379 35.9588 61.2841 36.3224 61.625C36.6861 61.9621 36.9759 62.4091 37.1918 62.9659C37.4077 63.5227 37.5156 64.2083 37.5156 65.0227V65.5909H30.7884V64.4318H36.152C36.152 63.9394 36.0535 63.5 35.8565 63.1136C35.6634 62.7273 35.3868 62.4223 35.027 62.1989C34.6709 61.9754 34.2505 61.8636 33.7656 61.8636C33.2315 61.8636 32.7694 61.9962 32.3793 62.2614C31.9929 62.5227 31.6955 62.8636 31.4872 63.2841C31.2789 63.7045 31.1747 64.1553 31.1747 64.6364V65.4091C31.1747 66.0682 31.2884 66.6269 31.5156 67.0852C31.7467 67.5398 32.0668 67.8864 32.4759 68.125C32.8849 68.3598 33.3603 68.4773 33.902 68.4773C34.2543 68.4773 34.5724 68.428 34.8565 68.3295C35.1444 68.2273 35.3925 68.0758 35.6009 67.875C35.8092 67.6705 35.9702 67.4167 36.0838 67.1136L37.3793 67.4773C37.2429 67.9167 37.0137 68.303 36.6918 68.6364C36.3698 68.9659 35.9721 69.2235 35.4986 69.4091C35.0251 69.5909 34.4929 69.6818 33.902 69.6818ZM45.7372 62.7273L44.5327 63.0682C44.4569 62.8674 44.3452 62.6723 44.1974 62.483C44.0535 62.2898 43.8565 62.1307 43.6065 62.0057C43.3565 61.8807 43.0365 61.8182 42.6463 61.8182C42.1122 61.8182 41.6671 61.9413 41.3111 62.1875C40.9588 62.4299 40.7827 62.7386 40.7827 63.1136C40.7827 63.447 40.9039 63.7102 41.1463 63.9034C41.3887 64.0966 41.7675 64.2576 42.2827 64.3864L43.5781 64.7045C44.3584 64.8939 44.9399 65.1837 45.3224 65.5739C45.705 65.9602 45.8963 66.4583 45.8963 67.0682C45.8963 67.5682 45.7524 68.0152 45.4645 68.4091C45.1804 68.803 44.7827 69.1136 44.2713 69.3409C43.7599 69.5682 43.1652 69.6818 42.4872 69.6818C41.5971 69.6818 40.8603 69.4886 40.277 69.1023C39.6937 68.7159 39.3243 68.1515 39.169 67.4091L40.4418 67.0909C40.563 67.5606 40.7921 67.9129 41.1293 68.1477C41.4702 68.3826 41.9152 68.5 42.4645 68.5C43.0895 68.5 43.5857 68.3674 43.9531 68.1023C44.3243 67.8333 44.5099 67.5114 44.5099 67.1364C44.5099 66.8333 44.4039 66.5795 44.1918 66.375C43.9796 66.1667 43.6539 66.0114 43.2145 65.9091L41.7599 65.5682C40.9607 65.3788 40.3736 65.0852 39.9986 64.6875C39.6274 64.286 39.4418 63.7841 39.4418 63.1818C39.4418 62.6894 39.58 62.2538 39.8565 61.875C40.1368 61.4962 40.5175 61.1989 40.9986 60.983C41.4834 60.767 42.0327 60.6591 42.6463 60.6591C43.5099 60.6591 44.188 60.8485 44.6804 61.2273C45.1766 61.6061 45.5289 62.1061 45.7372 62.7273ZM58.9602 60.7727C58.892 60.197 58.6155 59.75 58.1307 59.4318C57.6458 59.1136 57.0511 58.9545 56.3466 58.9545C55.8314 58.9545 55.3807 59.0379 54.9943 59.2045C54.6117 59.3712 54.3125 59.6004 54.0966 59.892C53.8845 60.1837 53.7784 60.5152 53.7784 60.8864C53.7784 61.197 53.8523 61.464 54 61.6875C54.1515 61.9072 54.3447 62.0909 54.5795 62.2386C54.8144 62.3826 55.0606 62.5019 55.3182 62.5966C55.5758 62.6875 55.8125 62.7614 56.0284 62.8182L57.2102 63.1364C57.5133 63.2159 57.8504 63.3258 58.2216 63.4659C58.5966 63.6061 58.9545 63.7973 59.2955 64.0398C59.6402 64.2784 59.9242 64.5852 60.1477 64.9602C60.3712 65.3352 60.483 65.7955 60.483 66.3409C60.483 66.9697 60.3182 67.5379 59.9886 68.0455C59.6629 68.553 59.1856 68.9564 58.5568 69.2557C57.9318 69.5549 57.1723 69.7045 56.2784 69.7045C55.4451 69.7045 54.7235 69.5701 54.1136 69.3011C53.5076 69.0322 53.0303 68.6572 52.6818 68.1761C52.3371 67.6951 52.142 67.1364 52.0966 66.5H53.5511C53.589 66.9394 53.7367 67.303 53.9943 67.5909C54.2557 67.875 54.5852 68.0871 54.983 68.2273C55.3845 68.3636 55.8163 68.4318 56.2784 68.4318C56.8163 68.4318 57.2992 68.3447 57.7273 68.1705C58.1553 67.9924 58.4943 67.7462 58.7443 67.4318C58.9943 67.1136 59.1193 66.7424 59.1193 66.3182C59.1193 65.9318 59.0114 65.6174 58.7955 65.375C58.5795 65.1326 58.2955 64.9356 57.9432 64.7841C57.5909 64.6326 57.2102 64.5 56.8011 64.3864L55.3693 63.9773C54.4602 63.7159 53.7405 63.3428 53.2102 62.858C52.6799 62.3731 52.4148 61.7386 52.4148 60.9545C52.4148 60.303 52.5909 59.7348 52.9432 59.25C53.2992 58.7614 53.7765 58.3826 54.375 58.1136C54.9773 57.8409 55.6496 57.7045 56.392 57.7045C57.142 57.7045 57.8087 57.839 58.392 58.108C58.9754 58.3731 59.4375 58.7367 59.7784 59.1989C60.1231 59.661 60.3049 60.1856 60.3239 60.7727H58.9602ZM68.1179 65.9318V60.7727H69.4588V69.5H68.1179V68.0227H68.027C67.8224 68.4659 67.5043 68.8428 67.0724 69.1534C66.6406 69.4602 66.0952 69.6136 65.4361 69.6136C64.8906 69.6136 64.4058 69.4943 63.9815 69.2557C63.5573 69.0133 63.224 68.6496 62.9815 68.1648C62.7391 67.6761 62.6179 67.0606 62.6179 66.3182V60.7727H63.9588V66.2273C63.9588 66.8636 64.1368 67.3712 64.4929 67.75C64.8527 68.1288 65.3111 68.3182 65.8679 68.3182C66.2012 68.3182 66.5402 68.233 66.8849 68.0625C67.2334 67.892 67.5251 67.6307 67.7599 67.2784C67.9986 66.9261 68.1179 66.4773 68.1179 65.9318ZM71.9148 72.7727V60.7727H73.2102V62.1591H73.3693C73.4678 62.0076 73.6042 61.8144 73.7784 61.5795C73.9564 61.3409 74.2102 61.1288 74.5398 60.9432C74.8731 60.7538 75.3239 60.6591 75.892 60.6591C76.6269 60.6591 77.2746 60.8428 77.8352 61.2102C78.3958 61.5777 78.8333 62.0985 79.1477 62.7727C79.4621 63.447 79.6193 64.2424 79.6193 65.1591C79.6193 66.0833 79.4621 66.8845 79.1477 67.5625C78.8333 68.2367 78.3977 68.7595 77.8409 69.1307C77.2841 69.4981 76.642 69.6818 75.9148 69.6818C75.3542 69.6818 74.9053 69.589 74.5682 69.4034C74.2311 69.214 73.9716 69 73.7898 68.7614C73.608 68.5189 73.4678 68.3182 73.3693 68.1591H73.2557V72.7727H71.9148ZM73.233 65.1364C73.233 65.7955 73.3295 66.3769 73.5227 66.8807C73.7159 67.3807 73.9981 67.7727 74.3693 68.0568C74.7405 68.3371 75.1951 68.4773 75.733 68.4773C76.2936 68.4773 76.7614 68.3295 77.1364 68.0341C77.5152 67.7348 77.7992 67.3333 77.9886 66.8295C78.1818 66.322 78.2784 65.7576 78.2784 65.1364C78.2784 64.5227 78.1837 63.9697 77.9943 63.4773C77.8087 62.9811 77.5265 62.589 77.1477 62.3011C76.7727 62.0095 76.3011 61.8636 75.733 61.8636C75.1875 61.8636 74.7292 62.0019 74.358 62.2784C73.9867 62.5511 73.7064 62.9337 73.517 63.4261C73.3277 63.9148 73.233 64.4848 73.233 65.1364ZM85.2102 69.6818C84.4223 69.6818 83.7311 69.4943 83.1364 69.1193C82.5455 68.7443 82.0833 68.2197 81.75 67.5455C81.4205 66.8712 81.2557 66.0833 81.2557 65.1818C81.2557 64.2727 81.4205 63.4792 81.75 62.8011C82.0833 62.1231 82.5455 61.5966 83.1364 61.2216C83.7311 60.8466 84.4223 60.6591 85.2102 60.6591C85.9981 60.6591 86.6875 60.8466 87.2784 61.2216C87.8731 61.5966 88.3352 62.1231 88.6648 62.8011C88.9981 63.4792 89.1648 64.2727 89.1648 65.1818C89.1648 66.0833 88.9981 66.8712 88.6648 67.5455C88.3352 68.2197 87.8731 68.7443 87.2784 69.1193C86.6875 69.4943 85.9981 69.6818 85.2102 69.6818ZM85.2102 68.4773C85.8087 68.4773 86.3011 68.3239 86.6875 68.017C87.0739 67.7102 87.3598 67.3068 87.5455 66.8068C87.7311 66.3068 87.8239 65.7652 87.8239 65.1818C87.8239 64.5985 87.7311 64.0549 87.5455 63.5511C87.3598 63.0473 87.0739 62.6402 86.6875 62.3295C86.3011 62.0189 85.8087 61.8636 85.2102 61.8636C84.6117 61.8636 84.1193 62.0189 83.733 62.3295C83.3466 62.6402 83.0606 63.0473 82.875 63.5511C82.6894 64.0549 82.5966 64.5985 82.5966 65.1818C82.5966 65.7652 82.6894 66.3068 82.875 66.8068C83.0606 67.3068 83.3466 67.7102 83.733 68.017C84.1193 68.3239 84.6117 68.4773 85.2102 68.4773ZM91.2116 69.5V60.7727H92.5071V62.0909H92.598C92.7571 61.6591 93.045 61.3087 93.4616 61.0398C93.8783 60.7708 94.348 60.6364 94.8707 60.6364C94.9692 60.6364 95.0923 60.6383 95.2401 60.642C95.3878 60.6458 95.4995 60.6515 95.5753 60.6591V62.0227C95.5298 62.0114 95.4257 61.9943 95.2628 61.9716C95.1037 61.9451 94.9351 61.9318 94.7571 61.9318C94.3329 61.9318 93.9541 62.0208 93.6207 62.1989C93.2912 62.3731 93.0298 62.6155 92.8366 62.9261C92.6473 63.233 92.5526 63.5833 92.5526 63.9773V69.5H91.2116ZM101.507 60.7727V61.9091H96.9844V60.7727H101.507ZM98.3026 58.6818H99.6435V67C99.6435 67.3788 99.6984 67.6629 99.8082 67.8523C99.9219 68.0379 100.066 68.1629 100.24 68.2273C100.418 68.2879 100.606 68.3182 100.803 68.3182C100.95 68.3182 101.071 68.3106 101.166 68.2955C101.261 68.2765 101.337 68.2614 101.393 68.25L101.666 69.4545C101.575 69.4886 101.448 69.5227 101.286 69.5568C101.123 69.5947 100.916 69.6136 100.666 69.6136C100.287 69.6136 99.9162 69.5322 99.5526 69.3693C99.1927 69.2064 98.8935 68.9583 98.6548 68.625C98.42 68.2917 98.3026 67.8712 98.3026 67.3636V58.6818ZM107.089 69.6818C106.249 69.6818 105.523 69.4962 104.913 69.125C104.307 68.75 103.839 68.2273 103.51 67.5568C103.184 66.8826 103.021 66.0985 103.021 65.2045C103.021 64.3106 103.184 63.5227 103.51 62.8409C103.839 62.1553 104.298 61.6212 104.885 61.2386C105.476 60.8523 106.165 60.6591 106.953 60.6591C107.408 60.6591 107.857 60.7348 108.3 60.8864C108.743 61.0379 109.146 61.2841 109.51 61.625C109.874 61.9621 110.163 62.4091 110.379 62.9659C110.595 63.5227 110.703 64.2083 110.703 65.0227V65.5909H103.976V64.4318H109.339C109.339 63.9394 109.241 63.5 109.044 63.1136C108.851 62.7273 108.574 62.4223 108.214 62.1989C107.858 61.9754 107.438 61.8636 106.953 61.8636C106.419 61.8636 105.957 61.9962 105.567 62.2614C105.18 62.5227 104.883 62.8636 104.675 63.2841C104.466 63.7045 104.362 64.1553 104.362 64.6364V65.4091C104.362 66.0682 104.476 66.6269 104.703 67.0852C104.934 67.5398 105.254 67.8864 105.663 68.125C106.072 68.3598 106.548 68.4773 107.089 68.4773C107.442 68.4773 107.76 68.428 108.044 68.3295C108.332 68.2273 108.58 68.0758 108.788 67.875C108.997 67.6705 109.158 67.4167 109.271 67.1136L110.567 67.4773C110.43 67.9167 110.201 68.303 109.879 68.6364C109.557 68.9659 109.16 69.2235 108.686 69.4091C108.213 69.5909 107.68 69.6818 107.089 69.6818ZM116.038 69.6818C115.311 69.6818 114.669 69.4981 114.112 69.1307C113.555 68.7595 113.12 68.2367 112.805 67.5625C112.491 66.8845 112.334 66.0833 112.334 65.1591C112.334 64.2424 112.491 63.447 112.805 62.7727C113.12 62.0985 113.557 61.5777 114.118 61.2102C114.679 60.8428 115.326 60.6591 116.061 60.6591C116.629 60.6591 117.078 60.7538 117.408 60.9432C117.741 61.1288 117.995 61.3409 118.169 61.5795C118.347 61.8144 118.485 62.0076 118.584 62.1591H118.697V57.8636H120.038V69.5H118.743V68.1591H118.584C118.485 68.3182 118.345 68.5189 118.163 68.7614C117.982 69 117.722 69.214 117.385 69.4034C117.048 69.589 116.599 69.6818 116.038 69.6818ZM116.22 68.4773C116.758 68.4773 117.213 68.3371 117.584 68.0568C117.955 67.7727 118.237 67.3807 118.43 66.8807C118.624 66.3769 118.72 65.7955 118.72 65.1364C118.72 64.4848 118.625 63.9148 118.436 63.4261C118.247 62.9337 117.966 62.5511 117.595 62.2784C117.224 62.0019 116.766 61.8636 116.22 61.8636C115.652 61.8636 115.179 62.0095 114.8 62.3011C114.425 62.589 114.143 62.9811 113.953 63.4773C113.768 63.9697 113.675 64.5227 113.675 65.1364C113.675 65.7576 113.769 66.322 113.959 66.8295C114.152 67.3333 114.436 67.7348 114.811 68.0341C115.19 68.3295 115.66 68.4773 116.22 68.4773Z" fill="#757575"/>
<path d="M144 0V84" stroke="#757575"/>
<path d="M221.307 41.5L230.955 22.4091V22.25H219.716V18.2273H236.045V22.3068L226.386 41.5H221.307ZM247.631 41.8182C245.881 41.8182 244.324 41.5341 242.96 40.9659C241.604 40.3902 240.54 39.6061 239.767 38.6136C238.994 37.6212 238.608 36.4962 238.608 35.2386C238.608 34.2689 238.828 33.3788 239.267 32.5682C239.714 31.75 240.32 31.072 241.085 30.5341C241.85 29.9886 242.706 29.6402 243.653 29.4886V29.3295C242.411 29.0795 241.403 28.4773 240.631 27.5227C239.858 26.5606 239.472 25.4432 239.472 24.1705C239.472 22.9659 239.824 21.8939 240.528 20.9545C241.233 20.0076 242.199 19.2652 243.426 18.7273C244.661 18.1818 246.062 17.9091 247.631 17.9091C249.199 17.9091 250.597 18.1818 251.824 18.7273C253.059 19.2727 254.028 20.0189 254.733 20.9659C255.438 21.9053 255.794 22.9735 255.801 24.1705C255.794 25.4508 255.4 26.5682 254.619 27.5227C253.839 28.4773 252.839 29.0795 251.619 29.3295V29.4886C252.551 29.6402 253.396 29.9886 254.153 30.5341C254.919 31.072 255.525 31.75 255.972 32.5682C256.426 33.3788 256.657 34.2689 256.665 35.2386C256.657 36.4962 256.267 37.6212 255.494 38.6136C254.722 39.6061 253.653 40.3902 252.29 40.9659C250.934 41.5341 249.381 41.8182 247.631 41.8182ZM247.631 38.2045C248.411 38.2045 249.093 38.0644 249.676 37.7841C250.259 37.4962 250.714 37.1023 251.04 36.6023C251.373 36.0947 251.54 35.5114 251.54 34.8523C251.54 34.178 251.369 33.5833 251.028 33.0682C250.688 32.5455 250.225 32.1364 249.642 31.8409C249.059 31.5379 248.388 31.3864 247.631 31.3864C246.881 31.3864 246.21 31.5379 245.619 31.8409C245.028 32.1364 244.563 32.5455 244.222 33.0682C243.888 33.5833 243.722 34.178 243.722 34.8523C243.722 35.5114 243.884 36.0947 244.21 36.6023C244.536 37.1023 244.994 37.4962 245.585 37.7841C246.176 38.0644 246.858 38.2045 247.631 38.2045ZM247.631 27.8068C248.282 27.8068 248.862 27.6742 249.369 27.4091C249.877 27.1439 250.275 26.7765 250.562 26.3068C250.85 25.8371 250.994 25.2955 250.994 24.6818C250.994 24.0758 250.85 23.5455 250.562 23.0909C250.275 22.6288 249.881 22.2689 249.381 22.0114C248.881 21.7462 248.297 21.6136 247.631 21.6136C246.972 21.6136 246.388 21.7462 245.881 22.0114C245.373 22.2689 244.975 22.6288 244.688 23.0909C244.407 23.5455 244.267 24.0758 244.267 24.6818C244.267 25.2955 244.411 25.8371 244.699 26.3068C244.987 26.7765 245.384 27.1439 245.892 27.4091C246.4 27.6742 246.979 27.8068 247.631 27.8068Z" fill="#757575"/>
<path d="M173.886 69.5H172.409L176.682 57.8636H178.136L182.409 69.5H180.932L177.455 59.7045H177.364L173.886 69.5ZM174.432 64.9545H180.386V66.2045H174.432V64.9545ZM187.585 69.6818C186.767 69.6818 186.063 69.4886 185.472 69.1023C184.881 68.7159 184.426 68.1837 184.108 67.5057C183.79 66.8277 183.631 66.053 183.631 65.1818C183.631 64.2955 183.794 63.5133 184.119 62.8352C184.449 62.1534 184.907 61.6212 185.494 61.2386C186.085 60.8523 186.775 60.6591 187.562 60.6591C188.176 60.6591 188.729 60.7727 189.222 61C189.714 61.2273 190.117 61.5455 190.432 61.9545C190.746 62.3636 190.941 62.8409 191.017 63.3864H189.676C189.574 62.9886 189.347 62.6364 188.994 62.3295C188.646 62.0189 188.176 61.8636 187.585 61.8636C187.063 61.8636 186.604 62 186.21 62.2727C185.82 62.5417 185.515 62.9223 185.295 63.4148C185.08 63.9034 184.972 64.4773 184.972 65.1364C184.972 65.8106 185.078 66.3977 185.29 66.8977C185.506 67.3977 185.809 67.786 186.199 68.0625C186.593 68.339 187.055 68.4773 187.585 68.4773C187.934 68.4773 188.25 68.4167 188.534 68.2955C188.818 68.1742 189.059 68 189.256 67.7727C189.453 67.5455 189.593 67.2727 189.676 66.9545H191.017C190.941 67.4697 190.754 67.9337 190.455 68.3466C190.159 68.7557 189.767 69.0814 189.278 69.3239C188.794 69.5625 188.229 69.6818 187.585 69.6818ZM196.773 60.7727V61.9091H192.25V60.7727H196.773ZM193.568 58.6818H194.909V67C194.909 67.3788 194.964 67.6629 195.074 67.8523C195.188 68.0379 195.331 68.1629 195.506 68.2273C195.684 68.2879 195.871 68.3182 196.068 68.3182C196.216 68.3182 196.337 68.3106 196.432 68.2955C196.527 68.2765 196.602 68.2614 196.659 68.25L196.932 69.4545C196.841 69.4886 196.714 69.5227 196.551 69.5568C196.388 69.5947 196.182 69.6136 195.932 69.6136C195.553 69.6136 195.182 69.5322 194.818 69.3693C194.458 69.2064 194.159 68.9583 193.92 68.625C193.686 68.2917 193.568 67.8712 193.568 67.3636V58.6818ZM198.79 69.5V60.7727H200.131V69.5H198.79ZM199.472 59.3182C199.21 59.3182 198.985 59.2292 198.795 59.0511C198.61 58.8731 198.517 58.6591 198.517 58.4091C198.517 58.1591 198.61 57.9451 198.795 57.767C198.985 57.589 199.21 57.5 199.472 57.5C199.733 57.5 199.956 57.589 200.142 57.767C200.331 57.9451 200.426 58.1591 200.426 58.4091C200.426 58.6591 200.331 58.8731 200.142 59.0511C199.956 59.2292 199.733 59.3182 199.472 59.3182ZM209.723 60.7727L206.496 69.5H205.132L201.905 60.7727H203.359L205.768 67.7273H205.859L208.268 60.7727H209.723ZM214.839 69.6818C213.999 69.6818 213.273 69.4962 212.663 69.125C212.057 68.75 211.589 68.2273 211.26 67.5568C210.934 66.8826 210.771 66.0985 210.771 65.2045C210.771 64.3106 210.934 63.5227 211.26 62.8409C211.589 62.1553 212.048 61.6212 212.635 61.2386C213.226 60.8523 213.915 60.6591 214.703 60.6591C215.158 60.6591 215.607 60.7348 216.05 60.8864C216.493 61.0379 216.896 61.2841 217.26 61.625C217.624 61.9621 217.913 62.4091 218.129 62.9659C218.345 63.5227 218.453 64.2083 218.453 65.0227V65.5909H211.726V64.4318H217.089C217.089 63.9394 216.991 63.5 216.794 63.1136C216.601 62.7273 216.324 62.4223 215.964 62.1989C215.608 61.9754 215.188 61.8636 214.703 61.8636C214.169 61.8636 213.707 61.9962 213.317 62.2614C212.93 62.5227 212.633 62.8636 212.425 63.2841C212.216 63.7045 212.112 64.1553 212.112 64.6364V65.4091C212.112 66.0682 212.226 66.6269 212.453 67.0852C212.684 67.5398 213.004 67.8864 213.413 68.125C213.822 68.3598 214.298 68.4773 214.839 68.4773C215.192 68.4773 215.51 68.428 215.794 68.3295C216.082 68.2273 216.33 68.0758 216.538 67.875C216.747 67.6705 216.908 67.4167 217.021 67.1136L218.317 67.4773C218.18 67.9167 217.951 68.303 217.629 68.6364C217.307 68.9659 216.91 69.2235 216.436 69.4091C215.963 69.5909 215.43 69.6818 214.839 69.6818ZM225.652 57.8636L229.107 67.6591H229.243L232.697 57.8636H234.175L229.902 69.5H228.447L224.175 57.8636H225.652ZM238.538 69.6818C237.75 69.6818 237.059 69.4943 236.464 69.1193C235.874 68.7443 235.411 68.2197 235.078 67.5455C234.749 66.8712 234.584 66.0833 234.584 65.1818C234.584 64.2727 234.749 63.4792 235.078 62.8011C235.411 62.1231 235.874 61.5966 236.464 61.2216C237.059 60.8466 237.75 60.6591 238.538 60.6591C239.326 60.6591 240.016 60.8466 240.607 61.2216C241.201 61.5966 241.663 62.1231 241.993 62.8011C242.326 63.4792 242.493 64.2727 242.493 65.1818C242.493 66.0833 242.326 66.8712 241.993 67.5455C241.663 68.2197 241.201 68.7443 240.607 69.1193C240.016 69.4943 239.326 69.6818 238.538 69.6818ZM238.538 68.4773C239.137 68.4773 239.629 68.3239 240.016 68.017C240.402 67.7102 240.688 67.3068 240.874 66.8068C241.059 66.3068 241.152 65.7652 241.152 65.1818C241.152 64.5985 241.059 64.0549 240.874 63.5511C240.688 63.0473 240.402 62.6402 240.016 62.3295C239.629 62.0189 239.137 61.8636 238.538 61.8636C237.94 61.8636 237.447 62.0189 237.061 62.3295C236.675 62.6402 236.389 63.0473 236.203 63.5511C236.018 64.0549 235.925 64.5985 235.925 65.1818C235.925 65.7652 236.018 66.3068 236.203 66.8068C236.389 67.3068 236.675 67.7102 237.061 68.017C237.447 68.3239 237.94 68.4773 238.538 68.4773ZM245.881 57.8636V69.5H244.54V57.8636H245.881ZM253.837 65.9318V60.7727H255.178V69.5H253.837V68.0227H253.746C253.541 68.4659 253.223 68.8428 252.791 69.1534C252.359 69.4602 251.814 69.6136 251.155 69.6136C250.609 69.6136 250.125 69.4943 249.7 69.2557C249.276 69.0133 248.943 68.6496 248.7 68.1648C248.458 67.6761 248.337 67.0606 248.337 66.3182V60.7727H249.678V66.2273C249.678 66.8636 249.856 67.3712 250.212 67.75C250.571 68.1288 251.03 68.3182 251.587 68.3182C251.92 68.3182 252.259 68.233 252.604 68.0625C252.952 67.892 253.244 67.6307 253.479 67.2784C253.717 66.9261 253.837 66.4773 253.837 65.9318ZM258.974 64.25V69.5H257.634V60.7727H258.929V62.1364H259.043C259.247 61.6932 259.558 61.3371 259.974 61.0682C260.391 60.7955 260.929 60.6591 261.588 60.6591C262.179 60.6591 262.696 60.7803 263.139 61.0227C263.582 61.2614 263.927 61.625 264.173 62.1136C264.42 62.5985 264.543 63.2121 264.543 63.9545V69.5H263.202V64.0455C263.202 63.3598 263.024 62.8258 262.668 62.4432C262.312 62.0568 261.823 61.8636 261.202 61.8636C260.774 61.8636 260.391 61.9564 260.054 62.142C259.721 62.3277 259.457 62.5985 259.264 62.9545C259.071 63.3106 258.974 63.7424 258.974 64.25ZM270.788 60.7727V61.9091H266.266V60.7727H270.788ZM267.584 58.6818H268.925V67C268.925 67.3788 268.98 67.6629 269.089 67.8523C269.203 68.0379 269.347 68.1629 269.521 68.2273C269.699 68.2879 269.887 68.3182 270.084 68.3182C270.232 68.3182 270.353 68.3106 270.447 68.2955C270.542 68.2765 270.618 68.2614 270.675 68.25L270.947 69.4545C270.857 69.4886 270.73 69.5227 270.567 69.5568C270.404 69.5947 270.197 69.6136 269.947 69.6136C269.569 69.6136 269.197 69.5322 268.834 69.3693C268.474 69.2064 268.175 68.9583 267.936 68.625C267.701 68.2917 267.584 67.8712 267.584 67.3636V58.6818ZM276.371 69.6818C275.53 69.6818 274.804 69.4962 274.195 69.125C273.589 68.75 273.121 68.2273 272.791 67.5568C272.465 66.8826 272.303 66.0985 272.303 65.2045C272.303 64.3106 272.465 63.5227 272.791 62.8409C273.121 62.1553 273.579 61.6212 274.166 61.2386C274.757 60.8523 275.446 60.6591 276.234 60.6591C276.689 60.6591 277.138 60.7348 277.581 60.8864C278.024 61.0379 278.428 61.2841 278.791 61.625C279.155 61.9621 279.445 62.4091 279.661 62.9659C279.876 63.5227 279.984 64.2083 279.984 65.0227V65.5909H273.257V64.4318H278.621C278.621 63.9394 278.522 63.5 278.325 63.1136C278.132 62.7273 277.856 62.4223 277.496 62.1989C277.14 61.9754 276.719 61.8636 276.234 61.8636C275.7 61.8636 275.238 61.9962 274.848 62.2614C274.462 62.5227 274.164 62.8636 273.956 63.2841C273.748 63.7045 273.643 64.1553 273.643 64.6364V65.4091C273.643 66.0682 273.757 66.6269 273.984 67.0852C274.215 67.5398 274.536 67.8864 274.945 68.125C275.354 68.3598 275.829 68.4773 276.371 68.4773C276.723 68.4773 277.041 68.428 277.325 68.3295C277.613 68.2273 277.861 68.0758 278.07 67.875C278.278 67.6705 278.439 67.4167 278.553 67.1136L279.848 67.4773C279.712 67.9167 279.482 68.303 279.161 68.6364C278.839 68.9659 278.441 69.2235 277.967 69.4091C277.494 69.5909 276.962 69.6818 276.371 69.6818ZM285.683 69.6818C284.842 69.6818 284.117 69.4962 283.507 69.125C282.901 68.75 282.433 68.2273 282.104 67.5568C281.778 66.8826 281.615 66.0985 281.615 65.2045C281.615 64.3106 281.778 63.5227 282.104 62.8409C282.433 62.1553 282.892 61.6212 283.479 61.2386C284.07 60.8523 284.759 60.6591 285.547 60.6591C286.001 60.6591 286.45 60.7348 286.893 60.8864C287.337 61.0379 287.74 61.2841 288.104 61.625C288.467 61.9621 288.757 62.4091 288.973 62.9659C289.189 63.5227 289.297 64.2083 289.297 65.0227V65.5909H282.57V64.4318H287.933C287.933 63.9394 287.835 63.5 287.638 63.1136C287.445 62.7273 287.168 62.4223 286.808 62.1989C286.452 61.9754 286.032 61.8636 285.547 61.8636C285.013 61.8636 284.551 61.9962 284.161 62.2614C283.774 62.5227 283.477 62.8636 283.268 63.2841C283.06 63.7045 282.956 64.1553 282.956 64.6364V65.4091C282.956 66.0682 283.07 66.6269 283.297 67.0852C283.528 67.5398 283.848 67.8864 284.257 68.125C284.666 68.3598 285.142 68.4773 285.683 68.4773C286.036 68.4773 286.354 68.428 286.638 68.3295C286.926 68.2273 287.174 68.0758 287.382 67.875C287.59 67.6705 287.751 67.4167 287.865 67.1136L289.161 67.4773C289.024 67.9167 288.795 68.303 288.473 68.6364C288.151 68.9659 287.753 69.2235 287.28 69.4091C286.806 69.5909 286.274 69.6818 285.683 69.6818ZM291.337 69.5V60.7727H292.632V62.0909H292.723C292.882 61.6591 293.17 61.3087 293.587 61.0398C294.003 60.7708 294.473 60.6364 294.996 60.6364C295.094 60.6364 295.217 60.6383 295.365 60.642C295.513 60.6458 295.625 60.6515 295.7 60.6591V62.0227C295.655 62.0114 295.551 61.9943 295.388 61.9716C295.229 61.9451 295.06 61.9318 294.882 61.9318C294.458 61.9318 294.079 62.0208 293.746 62.1989C293.416 62.3731 293.155 62.6155 292.962 62.9261C292.772 63.233 292.678 63.5833 292.678 63.9773V69.5H291.337ZM303.472 62.7273L302.267 63.0682C302.191 62.8674 302.08 62.6723 301.932 62.483C301.788 62.2898 301.591 62.1307 301.341 62.0057C301.091 61.8807 300.771 61.8182 300.381 61.8182C299.847 61.8182 299.402 61.9413 299.045 62.1875C298.693 62.4299 298.517 62.7386 298.517 63.1136C298.517 63.447 298.638 63.7102 298.881 63.9034C299.123 64.0966 299.502 64.2576 300.017 64.3864L301.312 64.7045C302.093 64.8939 302.674 65.1837 303.057 65.5739C303.439 65.9602 303.631 66.4583 303.631 67.0682C303.631 67.5682 303.487 68.0152 303.199 68.4091C302.915 68.803 302.517 69.1136 302.006 69.3409C301.494 69.5682 300.9 69.6818 300.222 69.6818C299.331 69.6818 298.595 69.4886 298.011 69.1023C297.428 68.7159 297.059 68.1515 296.903 67.4091L298.176 67.0909C298.297 67.5606 298.527 67.9129 298.864 68.1477C299.205 68.3826 299.65 68.5 300.199 68.5C300.824 68.5 301.32 68.3674 301.688 68.1023C302.059 67.8333 302.244 67.5114 302.244 67.1364C302.244 66.8333 302.138 66.5795 301.926 66.375C301.714 66.1667 301.388 66.0114 300.949 65.9091L299.494 65.5682C298.695 65.3788 298.108 65.0852 297.733 64.6875C297.362 64.286 297.176 63.7841 297.176 63.1818C297.176 62.6894 297.314 62.2538 297.591 61.875C297.871 61.4962 298.252 61.1989 298.733 60.983C299.218 60.767 299.767 60.6591 300.381 60.6591C301.244 60.6591 301.922 60.8485 302.415 61.2273C302.911 61.6061 303.263 62.1061 303.472 62.7273Z" fill="#757575"/>
<path d="M325 0V84" stroke="#757575"/>
<path d="M405.886 37.5V33.9545L414.17 26.2841C414.875 25.6023 415.466 24.9886 415.943 24.4432C416.428 23.8977 416.795 23.3636 417.045 22.8409C417.295 22.3106 417.42 21.7386 417.42 21.125C417.42 20.4432 417.265 19.8561 416.955 19.3636C416.644 18.8636 416.22 18.4811 415.682 18.2159C415.144 17.9432 414.534 17.8068 413.852 17.8068C413.14 17.8068 412.519 17.9508 411.989 18.2386C411.458 18.5265 411.049 18.9394 410.761 19.4773C410.473 20.0152 410.33 20.6553 410.33 21.3977H405.659C405.659 19.875 406.004 18.553 406.693 17.4318C407.383 16.3106 408.348 15.4432 409.591 14.8295C410.833 14.2159 412.265 13.9091 413.886 13.9091C415.553 13.9091 417.004 14.2045 418.239 14.7955C419.481 15.3788 420.447 16.1894 421.136 17.2273C421.826 18.2652 422.17 19.4545 422.17 20.7955C422.17 21.6742 421.996 22.5417 421.648 23.3977C421.307 24.2538 420.697 25.2045 419.818 26.25C418.939 27.2879 417.701 28.5341 416.102 29.9886L412.705 33.3182V33.4773H422.477V37.5H405.886ZM425.19 33.4091V29.5341L434.906 14.2273H438.247V19.5909H436.27L430.145 29.2841V29.4659H443.952V33.4091H425.19ZM436.361 37.5V32.2273L436.452 30.5114V14.2273H441.065V37.5H436.361Z" fill="black"/>
<path d="M381.515 65.5H380.106C380.022 65.0947 379.877 64.7386 379.668 64.4318C379.464 64.125 379.214 63.8674 378.918 63.6591C378.627 63.447 378.303 63.2879 377.947 63.1818C377.591 63.0758 377.219 63.0227 376.833 63.0227C376.129 63.0227 375.49 63.2008 374.918 63.5568C374.35 63.9129 373.897 64.4375 373.56 65.1307C373.227 65.8239 373.06 66.6742 373.06 67.6818C373.06 68.6894 373.227 69.5398 373.56 70.233C373.897 70.9261 374.35 71.4508 374.918 71.8068C375.49 72.1629 376.129 72.3409 376.833 72.3409C377.219 72.3409 377.591 72.2879 377.947 72.1818C378.303 72.0758 378.627 71.9186 378.918 71.7102C379.214 71.4981 379.464 71.2386 379.668 70.9318C379.877 70.6212 380.022 70.2652 380.106 69.8636H381.515C381.409 70.4583 381.216 70.9905 380.935 71.4602C380.655 71.9299 380.307 72.3295 379.89 72.6591C379.473 72.9848 379.005 73.233 378.487 73.4034C377.971 73.5739 377.42 73.6591 376.833 73.6591C375.841 73.6591 374.958 73.4167 374.185 72.9318C373.413 72.447 372.805 71.7576 372.362 70.8636C371.918 69.9697 371.697 68.9091 371.697 67.6818C371.697 66.4545 371.918 65.3939 372.362 64.5C372.805 63.6061 373.413 62.9167 374.185 62.4318C374.958 61.947 375.841 61.7045 376.833 61.7045C377.42 61.7045 377.971 61.7898 378.487 61.9602C379.005 62.1307 379.473 62.3807 379.89 62.7102C380.307 63.036 380.655 63.4337 380.935 63.9034C381.216 64.3693 381.409 64.9015 381.515 65.5ZM383.61 73.5V64.7727H384.906V66.0909H384.996C385.156 65.6591 385.443 65.3087 385.86 65.0398C386.277 64.7708 386.746 64.6364 387.269 64.6364C387.368 64.6364 387.491 64.6383 387.638 64.642C387.786 64.6458 387.898 64.6515 387.974 64.6591V66.0227C387.928 66.0114 387.824 65.9943 387.661 65.9716C387.502 65.9451 387.334 65.9318 387.156 65.9318C386.731 65.9318 386.353 66.0208 386.019 66.1989C385.69 66.3731 385.428 66.6155 385.235 66.9261C385.046 67.233 384.951 67.5833 384.951 67.9773V73.5H383.61ZM389.563 73.5V64.7727H390.904V73.5H389.563ZM390.245 63.3182C389.984 63.3182 389.758 63.2292 389.569 63.0511C389.383 62.8731 389.29 62.6591 389.29 62.4091C389.29 62.1591 389.383 61.9451 389.569 61.767C389.758 61.589 389.984 61.5 390.245 61.5C390.506 61.5 390.73 61.589 390.915 61.767C391.105 61.9451 391.2 62.1591 391.2 62.4091C391.2 62.6591 391.105 62.8731 390.915 63.0511C390.73 63.2292 390.506 63.3182 390.245 63.3182ZM399.542 66.7273L398.337 67.0682C398.262 66.8674 398.15 66.6723 398.002 66.483C397.858 66.2898 397.661 66.1307 397.411 66.0057C397.161 65.8807 396.841 65.8182 396.451 65.8182C395.917 65.8182 395.472 65.9413 395.116 66.1875C394.763 66.4299 394.587 66.7386 394.587 67.1136C394.587 67.447 394.709 67.7102 394.951 67.9034C395.193 68.0966 395.572 68.2576 396.087 68.3864L397.383 68.7045C398.163 68.8939 398.745 69.1837 399.127 69.5739C399.51 69.9602 399.701 70.4583 399.701 71.0682C399.701 71.5682 399.557 72.0152 399.269 72.4091C398.985 72.803 398.587 73.1136 398.076 73.3409C397.565 73.5682 396.97 73.6818 396.292 73.6818C395.402 73.6818 394.665 73.4886 394.082 73.1023C393.498 72.7159 393.129 72.1515 392.974 71.4091L394.246 71.0909C394.368 71.5606 394.597 71.9129 394.934 72.1477C395.275 72.3826 395.72 72.5 396.269 72.5C396.894 72.5 397.39 72.3674 397.758 72.1023C398.129 71.8333 398.315 71.5114 398.315 71.1364C398.315 70.8333 398.209 70.5795 397.996 70.375C397.784 70.1667 397.459 70.0114 397.019 69.9091L395.565 69.5682C394.765 69.3788 394.178 69.0852 393.803 68.6875C393.432 68.286 393.246 67.7841 393.246 67.1818C393.246 66.6894 393.385 66.2538 393.661 65.875C393.942 65.4962 394.322 65.1989 394.803 64.983C395.288 64.767 395.837 64.6591 396.451 64.6591C397.315 64.6591 397.993 64.8485 398.485 65.2273C398.981 65.6061 399.334 66.1061 399.542 66.7273ZM401.719 73.5V64.7727H403.06V73.5H401.719ZM402.401 63.3182C402.14 63.3182 401.915 63.2292 401.725 63.0511C401.54 62.8731 401.447 62.6591 401.447 62.4091C401.447 62.1591 401.54 61.9451 401.725 61.767C401.915 61.589 402.14 61.5 402.401 61.5C402.663 61.5 402.886 61.589 403.072 61.767C403.261 61.9451 403.356 62.1591 403.356 62.4091C403.356 62.6591 403.261 62.8731 403.072 63.0511C402.886 63.2292 402.663 63.3182 402.401 63.3182ZM411.698 66.7273L410.494 67.0682C410.418 66.8674 410.306 66.6723 410.158 66.483C410.014 66.2898 409.817 66.1307 409.567 66.0057C409.317 65.8807 408.997 65.8182 408.607 65.8182C408.073 65.8182 407.628 65.9413 407.272 66.1875C406.92 66.4299 406.744 66.7386 406.744 67.1136C406.744 67.447 406.865 67.7102 407.107 67.9034C407.35 68.0966 407.728 68.2576 408.244 68.3864L409.539 68.7045C410.319 68.8939 410.901 69.1837 411.283 69.5739C411.666 69.9602 411.857 70.4583 411.857 71.0682C411.857 71.5682 411.713 72.0152 411.425 72.4091C411.141 72.803 410.744 73.1136 410.232 73.3409C409.721 73.5682 409.126 73.6818 408.448 73.6818C407.558 73.6818 406.821 73.4886 406.238 73.1023C405.655 72.7159 405.285 72.1515 405.13 71.4091L406.403 71.0909C406.524 71.5606 406.753 71.9129 407.09 72.1477C407.431 72.3826 407.876 72.5 408.425 72.5C409.05 72.5 409.547 72.3674 409.914 72.1023C410.285 71.8333 410.471 71.5114 410.471 71.1364C410.471 70.8333 410.365 70.5795 410.153 70.375C409.941 70.1667 409.615 70.0114 409.175 69.9091L407.721 69.5682C406.922 69.3788 406.335 69.0852 405.96 68.6875C405.588 68.286 405.403 67.7841 405.403 67.1818C405.403 66.6894 405.541 66.2538 405.817 65.875C406.098 65.4962 406.478 65.1989 406.96 64.983C407.444 64.767 407.994 64.6591 408.607 64.6591C409.471 64.6591 410.149 64.8485 410.641 65.2273C411.138 65.6061 411.49 66.1061 411.698 66.7273ZM428.376 67.6818C428.376 68.9091 428.154 69.9697 427.711 70.8636C427.268 71.7576 426.66 72.447 425.887 72.9318C425.114 73.4167 424.232 73.6591 423.239 73.6591C422.247 73.6591 421.364 73.4167 420.592 72.9318C419.819 72.447 419.211 71.7576 418.768 70.8636C418.325 69.9697 418.103 68.9091 418.103 67.6818C418.103 66.4545 418.325 65.3939 418.768 64.5C419.211 63.6061 419.819 62.9167 420.592 62.4318C421.364 61.947 422.247 61.7045 423.239 61.7045C424.232 61.7045 425.114 61.947 425.887 62.4318C426.66 62.9167 427.268 63.6061 427.711 64.5C428.154 65.3939 428.376 66.4545 428.376 67.6818ZM427.012 67.6818C427.012 66.6742 426.844 65.8239 426.506 65.1307C426.173 64.4375 425.72 63.9129 425.148 63.5568C424.58 63.2008 423.944 63.0227 423.239 63.0227C422.535 63.0227 421.897 63.2008 421.325 63.5568C420.756 63.9129 420.304 64.4375 419.967 65.1307C419.633 65.8239 419.467 66.6742 419.467 67.6818C419.467 68.6894 419.633 69.5398 419.967 70.233C420.304 70.9261 420.756 71.4508 421.325 71.8068C421.897 72.1629 422.535 72.3409 423.239 72.3409C423.944 72.3409 424.58 72.1629 425.148 71.8068C425.72 71.4508 426.173 70.9261 426.506 70.233C426.844 69.5398 427.012 68.6894 427.012 67.6818ZM436.063 69.9318V64.7727H437.404V73.5H436.063V72.0227H435.972C435.768 72.4659 435.45 72.8428 435.018 73.1534C434.586 73.4602 434.04 73.6136 433.381 73.6136C432.836 73.6136 432.351 73.4943 431.927 73.2557C431.503 73.0133 431.169 72.6496 430.927 72.1648C430.684 71.6761 430.563 71.0606 430.563 70.3182V64.7727H431.904V70.2273C431.904 70.8636 432.082 71.3712 432.438 71.75C432.798 72.1288 433.256 72.3182 433.813 72.3182C434.147 72.3182 434.486 72.233 434.83 72.0625C435.179 71.892 435.47 71.6307 435.705 71.2784C435.944 70.9261 436.063 70.4773 436.063 69.9318ZM443.656 64.7727V65.9091H439.133V64.7727H443.656ZM440.451 62.6818H441.792V71C441.792 71.3788 441.847 71.6629 441.957 71.8523C442.07 72.0379 442.214 72.1629 442.388 72.2273C442.567 72.2879 442.754 72.3182 442.951 72.3182C443.099 72.3182 443.22 72.3106 443.315 72.2955C443.409 72.2765 443.485 72.2614 443.542 72.25L443.815 73.4545C443.724 73.4886 443.597 73.5227 443.434 73.5568C443.271 73.5947 443.065 73.6136 442.815 73.6136C442.436 73.6136 442.065 73.5322 441.701 73.3693C441.341 73.2064 441.042 72.9583 440.803 72.625C440.568 72.2917 440.451 71.8712 440.451 71.3636V62.6818ZM447.201 61.8636V73.5H445.86V61.8636H447.201ZM449.657 73.5V64.7727H450.998V73.5H449.657ZM450.339 63.3182C450.077 63.3182 449.852 63.2292 449.663 63.0511C449.477 62.8731 449.384 62.6591 449.384 62.4091C449.384 62.1591 449.477 61.9451 449.663 61.767C449.852 61.589 450.077 61.5 450.339 61.5C450.6 61.5 450.824 61.589 451.009 61.767C451.199 61.9451 451.293 62.1591 451.293 62.4091C451.293 62.6591 451.199 62.8731 451.009 63.0511C450.824 63.2292 450.6 63.3182 450.339 63.3182ZM454.795 68.25V73.5H453.454V64.7727H454.749V66.1364H454.863C455.067 65.6932 455.378 65.3371 455.795 65.0682C456.211 64.7955 456.749 64.6591 457.408 64.6591C457.999 64.6591 458.516 64.7803 458.96 65.0227C459.403 65.2614 459.747 65.625 459.994 66.1136C460.24 66.5985 460.363 67.2121 460.363 67.9545V73.5H459.022V68.0455C459.022 67.3598 458.844 66.8258 458.488 66.4432C458.132 66.0568 457.643 65.8636 457.022 65.8636C456.594 65.8636 456.211 65.9564 455.874 66.142C455.541 66.3277 455.278 66.5985 455.085 66.9545C454.891 67.3106 454.795 67.7424 454.795 68.25ZM466.472 73.6818C465.631 73.6818 464.906 73.4962 464.296 73.125C463.69 72.75 463.222 72.2273 462.893 71.5568C462.567 70.8826 462.404 70.0985 462.404 69.2045C462.404 68.3106 462.567 67.5227 462.893 66.8409C463.222 66.1553 463.681 65.6212 464.268 65.2386C464.859 64.8523 465.548 64.6591 466.336 64.6591C466.79 64.6591 467.239 64.7348 467.683 64.8864C468.126 65.0379 468.529 65.2841 468.893 65.625C469.256 65.9621 469.546 66.4091 469.762 66.9659C469.978 67.5227 470.086 68.2083 470.086 69.0227V69.5909H463.359V68.4318H468.722C468.722 67.9394 468.624 67.5 468.427 67.1136C468.234 66.7273 467.957 66.4223 467.597 66.1989C467.241 65.9754 466.821 65.8636 466.336 65.8636C465.802 65.8636 465.34 65.9962 464.95 66.2614C464.563 66.5227 464.266 66.8636 464.058 67.2841C463.849 67.7045 463.745 68.1553 463.745 68.6364V69.4091C463.745 70.0682 463.859 70.6269 464.086 71.0852C464.317 71.5398 464.637 71.8864 465.046 72.125C465.455 72.3598 465.931 72.4773 466.472 72.4773C466.825 72.4773 467.143 72.428 467.427 72.3295C467.715 72.2273 467.963 72.0758 468.171 71.875C468.379 71.6705 468.54 71.4167 468.654 71.1136L469.95 71.4773C469.813 71.9167 469.584 72.303 469.262 72.6364C468.94 72.9659 468.542 73.2235 468.069 73.4091C467.595 73.5909 467.063 73.6818 466.472 73.6818ZM478.308 66.7273L477.103 67.0682C477.027 66.8674 476.915 66.6723 476.768 66.483C476.624 66.2898 476.427 66.1307 476.177 66.0057C475.927 65.8807 475.607 65.8182 475.217 65.8182C474.683 65.8182 474.237 65.9413 473.881 66.1875C473.529 66.4299 473.353 66.7386 473.353 67.1136C473.353 67.447 473.474 67.7102 473.717 67.9034C473.959 68.0966 474.338 68.2576 474.853 68.3864L476.148 68.7045C476.929 68.8939 477.51 69.1837 477.893 69.5739C478.275 69.9602 478.467 70.4583 478.467 71.0682C478.467 71.5682 478.323 72.0152 478.035 72.4091C477.751 72.803 477.353 73.1136 476.842 73.3409C476.33 73.5682 475.736 73.6818 475.058 73.6818C474.167 73.6818 473.431 73.4886 472.847 73.1023C472.264 72.7159 471.895 72.1515 471.739 71.4091L473.012 71.0909C473.133 71.5606 473.362 71.9129 473.7 72.1477C474.04 72.3826 474.486 72.5 475.035 72.5C475.66 72.5 476.156 72.3674 476.523 72.1023C476.895 71.8333 477.08 71.5114 477.08 71.1364C477.08 70.8333 476.974 70.5795 476.762 70.375C476.55 70.1667 476.224 70.0114 475.785 69.9091L474.33 69.5682C473.531 69.3788 472.944 69.0852 472.569 68.6875C472.198 68.286 472.012 67.7841 472.012 67.1818C472.012 66.6894 472.15 66.2538 472.427 65.875C472.707 65.4962 473.088 65.1989 473.569 64.983C474.054 64.767 474.603 64.6591 475.217 64.6591C476.08 64.6591 476.758 64.8485 477.251 65.2273C477.747 65.6061 478.099 66.1061 478.308 66.7273Z" fill="#757575"/>
</svg>
