<svg width="40" height="40" viewBox="0 0 40 40" fill="none" xmlns="http://www.w3.org/2000/svg">
<g clip-path="url(#clip0_68_3)">
<path fill-rule="evenodd" clip-rule="evenodd" d="M25 5C25.8841 5 26.7319 5.35119 27.357 5.97631C27.9821 6.60143 28.3333 7.44928 28.3333 8.33333V10H30C31.3261 10 32.5979 10.5268 33.5355 11.4645C34.4732 12.4021 35 13.6739 35 15V30C35 31.3261 34.4732 32.5979 33.5355 33.5355C32.5979 34.4732 31.3261 35 30 35H10C8.67392 35 7.40215 34.4732 6.46447 33.5355C5.52678 32.5979 5 31.3261 5 30V15C5 13.6739 5.52678 12.4021 6.46447 11.4645C7.40215 10.5268 8.67392 10 10 10H11.6667V8.33333C11.6667 7.44928 12.0179 6.60143 12.643 5.97631C13.2681 5.35119 14.1159 5 15 5H25ZM20 20C19.5918 20.0001 19.1978 20.1499 18.8927 20.4212C18.5877 20.6925 18.3928 21.0662 18.345 21.4717L18.3333 21.6667V23.3333H16.6667C16.2419 23.3338 15.8333 23.4965 15.5244 23.7881C15.2155 24.0797 15.0296 24.4783 15.0047 24.9023C14.9798 25.3264 15.1178 25.744 15.3904 26.0697C15.6631 26.3955 16.0498 26.6048 16.4717 26.655L16.6667 26.6667H18.3333V28.3333C18.3338 28.7581 18.4965 29.1667 18.7881 29.4756C19.0797 29.7845 19.4783 29.9704 19.9023 29.9953C20.3264 30.0202 20.744 29.8822 21.0697 29.6096C21.3955 29.3369 21.6048 28.9502 21.655 28.5283L21.6667 28.3333V26.6667H23.3333C23.7581 26.6662 24.1667 26.5035 24.4756 26.2119C24.7845 25.9203 24.9704 25.5217 24.9953 25.0977C25.0202 24.6736 24.8822 24.256 24.6096 23.9303C24.3369 23.6045 23.9502 23.3952 23.5283 23.345L23.3333 23.3333H21.6667V21.6667C21.6667 21.2246 21.4911 20.8007 21.1785 20.4882C20.8659 20.1756 20.442 20 20 20ZM30 13.3333H10C9.55797 13.3333 9.13405 13.5089 8.82149 13.8215C8.50893 14.134 8.33333 14.558 8.33333 15H31.6667C31.6667 14.558 31.4911 14.134 31.1785 13.8215C30.866 13.5089 30.442 13.3333 30 13.3333ZM25 8.33333H15V10H25V8.33333Z" fill="#C837AB"/>
</g>
<defs>
<clipPath id="clip0_68_3">
<rect width="40" height="40" fill="white"/>
</clipPath>
</defs>
</svg>
