<svg width="60" height="60" viewBox="0 0 60 60" fill="none" xmlns="http://www.w3.org/2000/svg">
<rect width="60" height="60" rx="30" fill="white"/>
<path d="M37.9688 15H22.0312C18.148 15 15 18.148 15 22.0312V37.9688C15 41.852 18.148 45 22.0312 45H37.9688C41.852 45 45 41.852 45 37.9688V22.0312C45 18.148 41.852 15 37.9688 15Z" fill="url(#paint0_radial_70_1133)"/>
<path d="M37.9688 15H22.0312C18.148 15 15 18.148 15 22.0312V37.9688C15 41.852 18.148 45 22.0312 45H37.9688C41.852 45 45 41.852 45 37.9688V22.0312C45 18.148 41.852 15 37.9688 15Z" fill="url(#paint1_radial_70_1133)"/>
<path d="M29.5323 18.2812C26.477 18.2812 26.0935 18.2946 24.8935 18.3492C23.6959 18.4041 22.8783 18.5937 22.1631 18.8719C21.423 19.1592 20.7954 19.5436 20.1701 20.1691C19.5443 20.7945 19.1599 21.4221 18.8717 22.1618C18.5927 22.8773 18.4029 23.6951 18.349 24.8922C18.2953 26.0923 18.2812 26.4759 18.2812 29.5313C18.2812 32.5866 18.2948 32.9689 18.3492 34.1688C18.4043 35.3665 18.5939 36.184 18.8719 36.8993C19.1594 37.6393 19.5438 38.2669 20.1693 38.8922C20.7945 39.518 21.4221 39.9033 22.1616 40.1906C22.8774 40.4688 23.6951 40.6584 24.8925 40.7133C26.0926 40.7679 26.4757 40.7812 29.5309 40.7812C32.5865 40.7812 32.9688 40.7679 34.1687 40.7133C35.3664 40.6584 36.1848 40.4688 36.9007 40.1906C37.6404 39.9033 38.2671 39.518 38.8921 38.8922C39.518 38.2669 39.9023 37.6393 40.1906 36.8996C40.4671 36.184 40.657 35.3662 40.7133 34.169C40.7672 32.9691 40.7812 32.5866 40.7812 29.5313C40.7812 26.4759 40.7672 26.0925 40.7133 24.8925C40.657 23.6948 40.4671 22.8774 40.1906 22.1621C39.9023 21.4221 39.518 20.7945 38.8921 20.1691C38.2664 19.5434 37.6406 19.159 36.9 18.872C36.1828 18.5937 35.3648 18.404 34.1671 18.3492C32.9671 18.2946 32.5851 18.2812 29.5288 18.2812H29.5323ZM28.523 20.3086C28.8226 20.3081 29.1568 20.3086 29.5323 20.3086C32.5361 20.3086 32.8921 20.3194 34.0783 20.3733C35.1751 20.4235 35.7705 20.6067 36.1671 20.7607C36.6921 20.9646 37.0664 21.2084 37.4599 21.6022C37.8537 21.996 38.0973 22.3709 38.3018 22.896C38.4558 23.2919 38.6392 23.8873 38.6892 24.9842C38.7431 26.1701 38.7548 26.5263 38.7548 29.5287C38.7548 32.531 38.7431 32.8873 38.6892 34.0732C38.639 35.17 38.4558 35.7654 38.3018 36.1615C38.0979 36.6865 37.8537 37.0604 37.4599 37.4539C37.0662 37.8476 36.6923 38.0913 36.1671 38.2952C35.771 38.4499 35.1751 38.6327 34.0783 38.6829C32.8923 38.7368 32.5361 38.7485 29.5323 38.7485C26.5283 38.7485 26.1722 38.7368 24.9864 38.6829C23.8895 38.6323 23.2941 38.449 22.8972 38.295C22.3723 38.0911 21.9972 37.8474 21.6035 37.4536C21.2097 37.0599 20.9661 36.6858 20.7617 36.1606C20.6076 35.7645 20.4241 35.1691 20.3742 34.0723C20.3203 32.8863 20.3095 32.5301 20.3095 29.5259C20.3095 26.5217 20.3203 26.1673 20.3742 24.9813C20.4244 23.8845 20.6076 23.2891 20.7617 22.8926C20.9656 22.3675 21.2097 21.9926 21.6036 21.5988C21.9973 21.2051 22.3723 20.9613 22.8973 20.757C23.2939 20.6023 23.8895 20.4195 24.9864 20.3691C26.0242 20.3222 26.4264 20.3081 28.523 20.3058V20.3086ZM35.5375 22.1765C34.7922 22.1765 34.1875 22.7806 34.1875 23.5261C34.1875 24.2714 34.7922 24.876 35.5375 24.876C36.2828 24.876 36.8875 24.2714 36.8875 23.5261C36.8875 22.7808 36.2828 22.1761 35.5375 22.1761V22.1765ZM29.5323 23.7539C26.3418 23.7539 23.7549 26.3407 23.7549 29.5313C23.7549 32.7218 26.3418 35.3074 29.5323 35.3074C32.7229 35.3074 35.3088 32.7218 35.3088 29.5313C35.3088 26.3408 32.7226 23.7539 29.532 23.7539H29.5323ZM29.5323 25.7812C31.6033 25.7812 33.2823 27.46 33.2823 29.5313C33.2823 31.6022 31.6033 33.2813 29.5323 33.2813C27.4611 33.2813 25.7823 31.6022 25.7823 29.5313C25.7823 27.46 27.4611 25.7812 29.5323 25.7812Z" fill="white"/>
<defs>
<radialGradient id="paint0_radial_70_1133" cx="0" cy="0" r="1" gradientUnits="userSpaceOnUse" gradientTransform="translate(22.9687 47.3106) rotate(-90) scale(29.7322 27.6533)">
<stop stop-color="#FFDD55"/>
<stop offset="0.1" stop-color="#FFDD55"/>
<stop offset="0.5" stop-color="#FF543E"/>
<stop offset="1" stop-color="#C837AB"/>
</radialGradient>
<radialGradient id="paint1_radial_70_1133" cx="0" cy="0" r="1" gradientUnits="userSpaceOnUse" gradientTransform="translate(9.97488 17.1611) rotate(78.681) scale(13.2905 54.7837)">
<stop stop-color="#3771C8"/>
<stop offset="0.128" stop-color="#3771C8"/>
<stop offset="1" stop-color="#6600FF" stop-opacity="0"/>
</radialGradient>
</defs>
</svg>
