<svg width="40" height="40" viewBox="0 0 40 40" fill="none" xmlns="http://www.w3.org/2000/svg">
<path fill-rule="evenodd" clip-rule="evenodd" d="M5.28683 8.61999C3.3335 10.5717 3.3335 13.715 3.3335 20C3.3335 26.285 3.3335 29.4283 5.28683 31.38C7.2385 33.3333 10.3818 33.3333 16.6668 33.3333H23.3335C29.6185 33.3333 32.7618 33.3333 34.7135 31.38C36.6668 29.4283 36.6668 26.285 36.6668 20C36.6668 13.715 36.6668 10.5717 34.7135 8.61999C32.7618 6.66666 29.6185 6.66666 23.3335 6.66666H16.6668C10.3818 6.66666 7.2385 6.66666 5.28683 8.61999ZM30.9602 12.5333C31.1722 12.788 31.2745 13.1164 31.2445 13.4464C31.2145 13.7765 31.0547 14.0811 30.8002 14.2933L27.1402 17.3433C25.6618 18.5767 24.4652 19.5733 23.4068 20.2533C22.3068 20.9617 21.2352 21.4083 20.0002 21.4083C18.7652 21.4083 17.6935 20.96 16.5918 20.2533C15.5352 19.5733 14.3385 18.575 12.8602 17.345L9.20016 14.295C8.94533 14.0828 8.78523 13.7781 8.75507 13.4479C8.7249 13.1177 8.82716 12.789 9.03933 12.5342C9.2515 12.2793 9.55622 12.1192 9.88644 12.0891C10.2167 12.0589 10.5453 12.1611 10.8002 12.3733L14.4002 15.3717C15.9552 16.6667 17.0335 17.5633 17.9468 18.15C18.8285 18.7167 19.4268 18.9083 20.0018 18.9083C20.5768 18.9083 21.1752 18.7183 22.0568 18.15C22.9685 17.5633 24.0485 16.6667 25.6035 15.3717L29.2018 12.3717C29.4567 12.1598 29.7853 12.0578 30.1153 12.0881C30.4453 12.1184 30.7482 12.2786 30.9602 12.5333Z" fill="#C837AB"/>
</svg>
