<svg width="40" height="40" viewBox="0 0 40 40" fill="none" xmlns="http://www.w3.org/2000/svg">
<path d="M34.2857 22.2196V18.4465C34.2596 15.9333 33.0941 13.498 30.9732 11.5244C28.8522 9.55083 25.8963 8.15124 22.5714 7.54628V2.09619C22.5714 1.54024 22.2704 1.00707 21.7346 0.613959C21.1988 0.220848 20.472 0 19.7143 0C18.9565 0 18.2298 0.220848 17.694 0.613959C17.1582 1.00707 16.8571 1.54024 16.8571 2.09619V7.12704C13.4394 7.79633 10.4389 9.30693 8.35835 11.4058C6.27776 13.5047 5.24341 16.0644 5.42857 18.6561V22.4292C5.42857 27.4601 0 28.7178 0 31.2332C0 32.4909 0 33.7486 1.42857 33.7486H38.5714C40 33.7486 40 32.4909 40 31.2332C40 28.7178 34.5714 27.4601 34.5714 22.4292L34.2857 22.2196ZM10.5714 35.6352C11.3558 36.9341 12.6373 38.0379 14.2603 38.8127C15.8832 39.5876 17.7779 40 19.7143 40C21.6506 40 23.5453 39.5876 25.1683 38.8127C26.7913 38.0379 28.0728 36.9341 28.8571 35.6352H10.5714Z" fill="#C837AB"/>
</svg>
